<?xml version="1.0" encoding="UTF-8" standalone="no"?>
<!DOCTYPE svg PUBLIC "-//W3C//DTD SVG 1.1//EN"
 "http://www.w3.org/Graphics/SVG/1.1/DTD/svg11.dtd">
<!-- Generated by graphviz version 2.44.1 (20200629.0846)
 -->
<!-- Title: g Pages: 1 -->
<svg width="2123pt" height="1922pt"
 viewBox="0.00 0.00 2123.00 1922.40" xmlns="http://www.w3.org/2000/svg" xmlns:xlink="http://www.w3.org/1999/xlink">
<g id="graph0" class="graph" transform="scale(1 1) rotate(0) translate(4 1918.4)">
<title>g</title>
<polygon fill="white" stroke="transparent" points="-4,4 -4,-1918.4 2119,-1918.4 2119,4 -4,4"/>
<g id="clust1" class="cluster">
<title>cluster_3371</title>
<polygon fill="#ececec" stroke="black" points="8,-8 8,-1906.4 2107,-1906.4 2107,-8 8,-8"/>
<text text-anchor="middle" x="19.89" y="-1889.8" font-family="Times New Roman,serif" font-size="14.00">it</text>
</g>
<g id="clust2" class="cluster">
<title>cluster_401995146</title>
<polygon fill="#d8d8d8" stroke="black" points="16,-16 16,-1873.6 2099,-1873.6 2099,-16 16,-16"/>
<text text-anchor="middle" x="39.55" y="-1857" font-family="Times New Roman,serif" font-size="14.00">gioco</text>
</g>
<g id="clust3" class="cluster">
<title>cluster_1720342979</title>
<polygon fill="#c4c4c4" stroke="black" points="24,-1126 24,-1840.8 925,-1840.8 925,-1126 24,-1126"/>
<text text-anchor="middle" x="40.95" y="-1824.2" font-family="Times New Roman,serif" font-size="14.00">gui</text>
</g>
<g id="clust4" class="cluster">
<title>cluster_1791400870</title>
<polygon fill="#c4c4c4" stroke="black" points="796,-24 796,-690.8 1328,-690.8 1328,-24 796,-24"/>
<text text-anchor="middle" x="813.34" y="-674.2" font-family="Times New Roman,serif" font-size="14.00">tipi</text>
</g>
<g id="clust5" class="cluster">
<title>cluster_299903175</title>
<polygon fill="#c4c4c4" stroke="black" points="933,-742.4 933,-1385.6 1995,-1385.6 1995,-742.4 933,-742.4"/>
<text text-anchor="middle" x="953.06" y="-1369" font-family="Times New Roman,serif" font-size="14.00">utils</text>
</g>
<!-- GameModel96662443 -->
<g id="node1" class="node">
<title>GameModel96662443</title>
<polygon fill="#ffffff" stroke="transparent" points="925,-932.4 749,-932.4 749,-834.4 925,-834.4 925,-932.4"/>
<text text-anchor="start" x="754" y="-914.8" font-family="Times New Roman,serif" font-size="14.00">(C)GameModel</text>
<text text-anchor="start" x="754" y="-890.8" font-family="Times New Roman,serif" font-size="14.00">&#45; &#160;&#160;giocatore: Giocatore [0..1]</text>
<text text-anchor="start" x="754" y="-866.8" font-family="Times New Roman,serif" font-size="14.00">&#45; &#160;&#160;init: Init [0..1]</text>
<text text-anchor="start" x="753.88" y="-842.8" font-family="Times New Roman,serif" font-size="14.00">&#45; &#160;&#160;stanze: List&lt;Stanza&gt; [0..*]</text>
<polygon fill="black" stroke="black" points="749,-907.4 749,-907.4 925,-907.4 925,-907.4 749,-907.4"/>
<polygon fill="none" stroke="black" points="749,-834.4 749,-932.4 925,-932.4 925,-834.4 749,-834.4"/>
</g>
<!-- Giocatore237703897 -->
<g id="node8" class="node">
<title>Giocatore237703897</title>
<polygon fill="#ffffff" stroke="transparent" points="1319.5,-633.2 1132.5,-633.2 1132.5,-511.2 1319.5,-511.2 1319.5,-633.2"/>
<text text-anchor="start" x="1138" y="-615.6" font-family="Times New Roman,serif" font-size="14.00">(C)Giocatore</text>
<text text-anchor="start" x="1138" y="-591.6" font-family="Times New Roman,serif" font-size="14.00">&#45; &#160;&#160;idUtente: int [1]</text>
<text text-anchor="start" x="1138" y="-567.6" font-family="Times New Roman,serif" font-size="14.00">&#45; &#160;&#160;inventario: Inventario [0..1]</text>
<text text-anchor="start" x="1138" y="-543.6" font-family="Times New Roman,serif" font-size="14.00">&#45; &#160;&#160;nickname: String [0..1]</text>
<text text-anchor="start" x="1137.68" y="-519.6" font-family="Times New Roman,serif" font-size="14.00">&#45; &#160;&#160;stanzaCorrente: Stanza [0..1]</text>
<polygon fill="black" stroke="black" points="1133,-608.2 1133,-608.2 1320,-608.2 1320,-608.2 1133,-608.2"/>
<polygon fill="none" stroke="black" points="1132.5,-511.2 1132.5,-633.2 1319.5,-633.2 1319.5,-511.2 1132.5,-511.2"/>
</g>
<!-- GameModel96662443&#45;&gt;Giocatore237703897 -->
<g id="edge1" class="edge">
<title>GameModel96662443&#45;&gt;Giocatore237703897</title>
<path fill="none" stroke="black" d="M868.66,-834.22C895.27,-793.72 929,-742.4 929,-742.4 929,-742.4 1124,-690.8 1124,-690.8 1124,-690.8 1144.47,-667.2 1167.07,-641.15"/>
<polygon fill="black" stroke="black" points="1169.9,-643.23 1173.8,-633.38 1164.61,-638.64 1169.9,-643.23"/>
<text text-anchor="middle" x="1117.04" y="-719.8" font-family="Times New Roman,serif" font-size="14.00">giocatore</text>
<text text-anchor="middle" x="1117.04" y="-703" font-family="Times New Roman,serif" font-size="14.00">[0..1]</text>
</g>
<!-- Stanza237703897 -->
<g id="node12" class="node">
<title>Stanza237703897</title>
<polygon fill="#ffffff" stroke="transparent" points="1117.5,-441.6 804.5,-441.6 804.5,-271.6 1117.5,-271.6 1117.5,-441.6"/>
<text text-anchor="start" x="810" y="-424" font-family="Times New Roman,serif" font-size="14.00">(C)Stanza</text>
<text text-anchor="start" x="810" y="-400" font-family="Times New Roman,serif" font-size="14.00">&#45; &#160;&#160;aperto: boolean [1]</text>
<text text-anchor="start" x="809.96" y="-376" font-family="Times New Roman,serif" font-size="14.00">&#45; &#160;&#160;connessioneStanze: Map&lt;Direzione, Stanza&gt; [0..*]</text>
<text text-anchor="start" x="810" y="-352" font-family="Times New Roman,serif" font-size="14.00">&#45; &#160;&#160;descrizione: String [0..1]</text>
<text text-anchor="start" x="810" y="-328" font-family="Times New Roman,serif" font-size="14.00">&#45; &#160;&#160;nome: String [0..1]</text>
<text text-anchor="start" x="810" y="-304" font-family="Times New Roman,serif" font-size="14.00">&#45; &#160;&#160;npc: Npc [0..1]</text>
<text text-anchor="start" x="810" y="-280" font-family="Times New Roman,serif" font-size="14.00">&#45; &#160;&#160;oggettiPresentiStanza: Set&lt;Oggetto&gt; [0..*]</text>
<polygon fill="black" stroke="black" points="805,-416.6 805,-416.6 1118,-416.6 1118,-416.6 805,-416.6"/>
<polygon fill="none" stroke="black" points="804.5,-271.6 804.5,-441.6 1117.5,-441.6 1117.5,-271.6 804.5,-271.6"/>
</g>
<!-- GameModel96662443&#45;&gt;Stanza237703897 -->
<g id="edge3" class="edge">
<title>GameModel96662443&#45;&gt;Stanza237703897</title>
<path fill="none" stroke="black" d="M844.66,-834.25C860.63,-733.82 896.02,-511.2 896.02,-511.2 896.02,-511.2 907.75,-483.47 921.24,-451.58"/>
<polygon fill="black" stroke="black" points="924.61,-452.61 925.28,-442.04 918.16,-449.88 924.61,-452.61"/>
<text text-anchor="middle" x="913.49" y="-576.4" font-family="Times New Roman,serif" font-size="14.00">stanze</text>
<text text-anchor="middle" x="913.49" y="-559.6" font-family="Times New Roman,serif" font-size="14.00">[0..*]</text>
</g>
<!-- Init1222358488 -->
<g id="node13" class="node">
<title>Init1222358488</title>
<polygon fill="#ffffff" stroke="transparent" points="1205,-1256 941,-1256 941,-1158 1205,-1158 1205,-1256"/>
<text text-anchor="start" x="946" y="-1238.4" font-family="Times New Roman,serif" font-size="14.00">(C)Init</text>
<text text-anchor="start" x="945.93" y="-1214.4" font-family="Times New Roman,serif" font-size="14.00">&#45; &#160;&#160;commands: Map&lt;String, Comando&gt; [0..*]</text>
<text text-anchor="start" x="946" y="-1190.4" font-family="Times New Roman,serif" font-size="14.00">&#45; &#160;&#160;objectMapper: ObjectMapper [0..1]</text>
<text text-anchor="start" x="946" y="-1166.4" font-family="Times New Roman,serif" font-size="14.00">&#45; &#160;&#160;stopWords: Set&lt;String&gt; [0..*]</text>
<polygon fill="black" stroke="black" points="941,-1231 941,-1231 1205,-1231 1205,-1231 941,-1231"/>
<polygon fill="none" stroke="black" points="941,-1158 941,-1256 1205,-1256 1205,-1158 941,-1158"/>
</g>
<!-- GameModel96662443&#45;&gt;Init1222358488 -->
<g id="edge2" class="edge">
<title>GameModel96662443&#45;&gt;Init1222358488</title>
<path fill="none" stroke="black" d="M859.51,-932.64C884.9,-987.04 922.68,-1068 922.68,-1068 922.68,-1068 971.09,-1112.44 1012.96,-1150.89"/>
<polygon fill="black" stroke="black" points="1010.69,-1153.55 1020.42,-1157.73 1015.43,-1148.39 1010.69,-1153.55"/>
<text text-anchor="middle" x="937.16" y="-1055.4" font-family="Times New Roman,serif" font-size="14.00">init</text>
<text text-anchor="middle" x="937.16" y="-1038.6" font-family="Times New Roman,serif" font-size="14.00">[0..1]</text>
</g>
<!-- JFrameMain1100698658 -->
<g id="node2" class="node">
<title>JFrameMain1100698658</title>
<polygon fill="#ffffff" stroke="transparent" points="487.5,-1280 284.5,-1280 284.5,-1134 487.5,-1134 487.5,-1280"/>
<text text-anchor="start" x="290" y="-1262.4" font-family="Times New Roman,serif" font-size="14.00">(C)JFrameMain</text>
<text text-anchor="start" x="290" y="-1238.4" font-family="Times New Roman,serif" font-size="14.00">&#45; &#160;&#160;cardLayout: CardLayout [0..1]</text>
<text text-anchor="start" x="290" y="-1214.4" font-family="Times New Roman,serif" font-size="14.00">&#45; &#160;&#160;cardsPanel: JPanel [0..1]</text>
<text text-anchor="start" x="289.89" y="-1190.4" font-family="Times New Roman,serif" font-size="14.00">&#45; &#160;&#160;gameModel: GameModel [0..1]</text>
<text text-anchor="start" x="290" y="-1166.4" font-family="Times New Roman,serif" font-size="14.00">&#45; &#160;&#160;jButton1: JButton [0..1]</text>
<text text-anchor="start" x="290" y="-1142.4" font-family="Times New Roman,serif" font-size="14.00">&#45; &#160;&#160;jButton2: JButton [0..1]</text>
<polygon fill="black" stroke="black" points="285,-1255 285,-1255 488,-1255 488,-1255 285,-1255"/>
<polygon fill="none" stroke="black" points="284.5,-1134 284.5,-1280 487.5,-1280 487.5,-1134 284.5,-1134"/>
</g>
<!-- JFrameMain1100698658&#45;&gt;GameModel96662443 -->
<g id="edge10" class="edge">
<title>JFrameMain1100698658&#45;&gt;GameModel96662443</title>
<path fill="none" stroke="black" d="M423.54,-1133.72C447.9,-1086.83 475.13,-1034.4 475.13,-1034.4 475.13,-1034.4 632.52,-969.16 739.7,-924.73"/>
<polygon fill="black" stroke="black" points="741.04,-927.96 748.94,-920.9 738.36,-921.5 741.04,-927.96"/>
<text text-anchor="middle" x="508.43" y="-1055.4" font-family="Times New Roman,serif" font-size="14.00">gameModel</text>
<text text-anchor="middle" x="508.43" y="-1038.6" font-family="Times New Roman,serif" font-size="14.00">[0..1]</text>
</g>
<!-- JPanelMenu1100698658 -->
<g id="node3" class="node">
<title>JPanelMenu1100698658</title>
<polygon fill="#ffffff" stroke="transparent" points="235.5,-1687.2 32.5,-1687.2 32.5,-1541.2 235.5,-1541.2 235.5,-1687.2"/>
<text text-anchor="start" x="38" y="-1669.6" font-family="Times New Roman,serif" font-size="14.00">(C)JPanelMenu</text>
<text text-anchor="start" x="38" y="-1645.6" font-family="Times New Roman,serif" font-size="14.00">&#45; &#160;&#160;caricaPartita1: JButton [0..1]</text>
<text text-anchor="start" x="38" y="-1621.6" font-family="Times New Roman,serif" font-size="14.00">&#45; &#160;&#160;esci: JButton [0..1]</text>
<text text-anchor="start" x="37.89" y="-1597.6" font-family="Times New Roman,serif" font-size="14.00">&#45; &#160;&#160;gameModel: GameModel [0..1]</text>
<text text-anchor="start" x="37.89" y="-1573.6" font-family="Times New Roman,serif" font-size="14.00">&#45; &#160;&#160;jframeMain: JFrameMain [0..1]</text>
<text text-anchor="start" x="38" y="-1549.6" font-family="Times New Roman,serif" font-size="14.00">&#45; &#160;&#160;nuovaPartita: JButton [0..1]</text>
<polygon fill="black" stroke="black" points="33,-1662.2 33,-1662.2 236,-1662.2 236,-1662.2 33,-1662.2"/>
<polygon fill="none" stroke="black" points="32.5,-1541.2 32.5,-1687.2 235.5,-1687.2 235.5,-1541.2 32.5,-1541.2"/>
</g>
<!-- JPanelMenu1100698658&#45;&gt;GameModel96662443 -->
<g id="edge11" class="edge">
<title>JPanelMenu1100698658&#45;&gt;GameModel96662443</title>
<path fill="none" stroke="black" d="M181.29,-1540.98C211.1,-1495.44 244,-1445.2 244,-1445.2 244,-1445.2 542,-1427.2 542,-1427.2 542,-1427.2 547.13,-1086 547.13,-1086 547.13,-1086 673.63,-998.02 759.5,-938.3"/>
<polygon fill="black" stroke="black" points="761.73,-941.02 767.94,-932.43 757.73,-935.27 761.73,-941.02"/>
<text text-anchor="middle" x="580.43" y="-1211.2" font-family="Times New Roman,serif" font-size="14.00">gameModel</text>
<text text-anchor="middle" x="580.43" y="-1194.4" font-family="Times New Roman,serif" font-size="14.00">[0..1]</text>
</g>
<!-- JPanelMenu1100698658&#45;&gt;JFrameMain1100698658 -->
<g id="edge12" class="edge">
<title>JPanelMenu1100698658&#45;&gt;JFrameMain1100698658</title>
<path fill="none" stroke="black" d="M164.55,-1540.99C191.64,-1476.99 226.92,-1393.6 226.92,-1393.6 226.92,-1393.6 274.54,-1338.04 317.67,-1287.72"/>
<polygon fill="black" stroke="black" points="320.42,-1289.89 324.27,-1280.02 315.1,-1285.34 320.42,-1289.89"/>
<text text-anchor="middle" x="260.04" y="-1414.6" font-family="Times New Roman,serif" font-size="14.00">jframeMain</text>
<text text-anchor="middle" x="260.04" y="-1397.8" font-family="Times New Roman,serif" font-size="14.00">[0..1]</text>
</g>
<!-- JPanelMostraPartite1100698658 -->
<g id="node4" class="node">
<title>JPanelMostraPartite1100698658</title>
<polygon fill="#ffffff" stroke="transparent" points="460.5,-1711.2 253.5,-1711.2 253.5,-1517.2 460.5,-1517.2 460.5,-1711.2"/>
<text text-anchor="start" x="259" y="-1693.6" font-family="Times New Roman,serif" font-size="14.00">(C)JPanelMostraPartite</text>
<text text-anchor="start" x="259" y="-1669.6" font-family="Times New Roman,serif" font-size="14.00">&#45; &#160;&#160;gameModel: GameModel [0..1]</text>
<text text-anchor="start" x="258.54" y="-1645.6" font-family="Times New Roman,serif" font-size="14.00">&#45; &#160;&#160;jButtonCancella1: JButton [0..1]</text>
<text text-anchor="start" x="259" y="-1621.6" font-family="Times New Roman,serif" font-size="14.00">&#45; &#160;&#160;jButtonCarica: JButton [0..1]</text>
<text text-anchor="start" x="259" y="-1597.6" font-family="Times New Roman,serif" font-size="14.00">&#45; &#160;&#160;jButtonIndietro: JButton [0..1]</text>
<text text-anchor="start" x="259" y="-1573.6" font-family="Times New Roman,serif" font-size="14.00">&#45; &#160;&#160;jScrollPane1: JScrollPane [0..1]</text>
<text text-anchor="start" x="259" y="-1549.6" font-family="Times New Roman,serif" font-size="14.00">&#45; &#160;&#160;jTablePartite: JTable [0..1]</text>
<text text-anchor="start" x="259" y="-1525.6" font-family="Times New Roman,serif" font-size="14.00">&#45; &#160;&#160;jframeMain: JFrameMain [0..1]</text>
<polygon fill="black" stroke="black" points="254,-1686.2 254,-1686.2 461,-1686.2 461,-1686.2 254,-1686.2"/>
<polygon fill="none" stroke="black" points="253.5,-1517.2 253.5,-1711.2 460.5,-1711.2 460.5,-1517.2 253.5,-1517.2"/>
</g>
<!-- JPanelMostraPartite1100698658&#45;&gt;GameModel96662443 -->
<g id="edge13" class="edge">
<title>JPanelMostraPartite1100698658&#45;&gt;GameModel96662443</title>
<path fill="none" stroke="black" d="M421.75,-1516.93C447,-1479.4 470,-1445.2 470,-1445.2 470,-1445.2 552,-1427.2 552,-1427.2 552,-1427.2 618,-1385.6 618,-1385.6 618,-1385.6 650.13,-1086 650.13,-1086 650.13,-1086 730.21,-999.61 785.52,-939.93"/>
<polygon fill="black" stroke="black" points="788.25,-942.15 792.48,-932.43 783.11,-937.39 788.25,-942.15"/>
<text text-anchor="middle" x="683.43" y="-1211.2" font-family="Times New Roman,serif" font-size="14.00">gameModel</text>
<text text-anchor="middle" x="683.43" y="-1194.4" font-family="Times New Roman,serif" font-size="14.00">[0..1]</text>
</g>
<!-- JPanelMostraPartite1100698658&#45;&gt;JFrameMain1100698658 -->
<g id="edge14" class="edge">
<title>JPanelMostraPartite1100698658&#45;&gt;JFrameMain1100698658</title>
<path fill="none" stroke="black" d="M326.42,-1516.93C312,-1471.55 297.92,-1427.2 297.92,-1427.2 297.92,-1427.2 297.92,-1393.6 297.92,-1393.6 297.92,-1393.6 323.75,-1339.18 347.43,-1289.28"/>
<polygon fill="black" stroke="black" points="350.69,-1290.56 351.82,-1280.02 344.37,-1287.56 350.69,-1290.56"/>
<text text-anchor="middle" x="330.04" y="-1414.6" font-family="Times New Roman,serif" font-size="14.00">jframeMain</text>
<text text-anchor="middle" x="330.04" y="-1397.8" font-family="Times New Roman,serif" font-size="14.00">[0..1]</text>
</g>
<!-- JPanelNuovoGioco1100698658 -->
<g id="node5" class="node">
<title>JPanelNuovoGioco1100698658</title>
<polygon fill="#ffffff" stroke="transparent" points="681.5,-1699.2 478.5,-1699.2 478.5,-1529.2 681.5,-1529.2 681.5,-1699.2"/>
<text text-anchor="start" x="484" y="-1681.6" font-family="Times New Roman,serif" font-size="14.00">(C)JPanelNuovoGioco</text>
<text text-anchor="start" x="484" y="-1657.6" font-family="Times New Roman,serif" font-size="14.00">&#45; &#160;&#160;conferma: JButton [0..1]</text>
<text text-anchor="start" x="483.89" y="-1633.6" font-family="Times New Roman,serif" font-size="14.00">&#45; &#160;&#160;gameModel: GameModel [0..1]</text>
<text text-anchor="start" x="484" y="-1609.6" font-family="Times New Roman,serif" font-size="14.00">&#45; &#160;&#160;indietro: JButton [0..1]</text>
<text text-anchor="start" x="484" y="-1585.6" font-family="Times New Roman,serif" font-size="14.00">&#45; &#160;&#160;jNickname: JTextField [0..1]</text>
<text text-anchor="start" x="483.89" y="-1561.6" font-family="Times New Roman,serif" font-size="14.00">&#45; &#160;&#160;jframeMain: JFrameMain [0..1]</text>
<text text-anchor="start" x="484" y="-1537.6" font-family="Times New Roman,serif" font-size="14.00">&#45; &#160;&#160;nicknameLabel: JLabel [0..1]</text>
<polygon fill="black" stroke="black" points="479,-1674.2 479,-1674.2 682,-1674.2 682,-1674.2 479,-1674.2"/>
<polygon fill="none" stroke="black" points="478.5,-1529.2 478.5,-1699.2 681.5,-1699.2 681.5,-1529.2 478.5,-1529.2"/>
</g>
<!-- JPanelNuovoGioco1100698658&#45;&gt;GameModel96662443 -->
<g id="edge15" class="edge">
<title>JPanelNuovoGioco1100698658&#45;&gt;GameModel96662443</title>
<path fill="none" stroke="black" d="M632.1,-1529.1C672.27,-1464.26 721,-1385.6 721,-1385.6 721,-1385.6 753.13,-1086 753.13,-1086 753.13,-1086 788.34,-1001.36 813.14,-941.76"/>
<polygon fill="black" stroke="black" points="816.41,-943.01 817.02,-932.43 809.95,-940.32 816.41,-943.01"/>
<text text-anchor="middle" x="786.43" y="-1211.2" font-family="Times New Roman,serif" font-size="14.00">gameModel</text>
<text text-anchor="middle" x="786.43" y="-1194.4" font-family="Times New Roman,serif" font-size="14.00">[0..1]</text>
</g>
<!-- JPanelNuovoGioco1100698658&#45;&gt;JFrameMain1100698658 -->
<g id="edge16" class="edge">
<title>JPanelNuovoGioco1100698658&#45;&gt;JFrameMain1100698658</title>
<path fill="none" stroke="black" d="M524.68,-1528.71C497.29,-1486.87 470,-1445.2 470,-1445.2 470,-1445.2 386.92,-1427.2 386.92,-1427.2 386.92,-1427.2 386.61,-1352.51 386.35,-1290.33"/>
<polygon fill="black" stroke="black" points="389.84,-1290.06 386.3,-1280.08 382.84,-1290.09 389.84,-1290.06"/>
<text text-anchor="middle" x="419.04" y="-1414.6" font-family="Times New Roman,serif" font-size="14.00">jframeMain</text>
<text text-anchor="middle" x="419.04" y="-1397.8" font-family="Times New Roman,serif" font-size="14.00">[0..1]</text>
</g>
<!-- JPanelPartita1100698658 -->
<g id="node6" class="node">
<title>JPanelPartita1100698658</title>
<polygon fill="#ffffff" stroke="transparent" points="916.5,-1783.2 699.5,-1783.2 699.5,-1445.2 916.5,-1445.2 916.5,-1783.2"/>
<text text-anchor="start" x="705" y="-1765.6" font-family="Times New Roman,serif" font-size="14.00">(C)JPanelPartita</text>
<text text-anchor="start" x="705" y="-1741.6" font-family="Times New Roman,serif" font-size="14.00">&#45; &#160;&#160;gameModel: GameModel [0..1]</text>
<text text-anchor="start" x="705" y="-1717.6" font-family="Times New Roman,serif" font-size="14.00">&#45; &#160;&#160;gestoreInput: Input [0..1]</text>
<text text-anchor="start" x="705" y="-1693.6" font-family="Times New Roman,serif" font-size="14.00">&#45; &#160;&#160;giocatore: Giocatore [0..1]</text>
<text text-anchor="start" x="705" y="-1669.6" font-family="Times New Roman,serif" font-size="14.00">&#45; &#160;&#160;init: Init [0..1]</text>
<text text-anchor="start" x="705" y="-1645.6" font-family="Times New Roman,serif" font-size="14.00">+ &#160;&#160;jAreaTesto: JTextArea [0..1]</text>
<text text-anchor="start" x="705" y="-1621.6" font-family="Times New Roman,serif" font-size="14.00">&#45; &#160;&#160;jCancellaButton1: JButton [0..1]</text>
<text text-anchor="start" x="704.89" y="-1597.6" font-family="Times New Roman,serif" font-size="14.00">&#45; &#160;&#160;jContainerImmagini: JLabel [0..1]</text>
<text text-anchor="start" x="705" y="-1573.6" font-family="Times New Roman,serif" font-size="14.00">&#45; &#160;&#160;jIndietroButton: JButton [0..1]</text>
<text text-anchor="start" x="704.5" y="-1549.6" font-family="Times New Roman,serif" font-size="14.00">&#45; &#160;&#160;jInputTestoArea: JTextField [0..1]</text>
<text text-anchor="start" x="705" y="-1525.6" font-family="Times New Roman,serif" font-size="14.00">&#45; &#160;&#160;jInvioButtone: JButton [0..1]</text>
<text text-anchor="start" x="705" y="-1501.6" font-family="Times New Roman,serif" font-size="14.00">&#45; &#160;&#160;jScrollPane1: JScrollPane [0..1]</text>
<text text-anchor="start" x="705" y="-1477.6" font-family="Times New Roman,serif" font-size="14.00">&#45; &#160;&#160;jframeMain: JFrameMain [0..1]</text>
<text text-anchor="start" x="705" y="-1453.6" font-family="Times New Roman,serif" font-size="14.00">&#45; &#160;&#160;stanze: List&lt;Stanza&gt; [0..*]</text>
<polygon fill="black" stroke="black" points="700,-1758.2 700,-1758.2 917,-1758.2 917,-1758.2 700,-1758.2"/>
<polygon fill="none" stroke="black" points="699.5,-1445.2 699.5,-1783.2 916.5,-1783.2 916.5,-1445.2 699.5,-1445.2"/>
</g>
<!-- JPanelPartita1100698658&#45;&gt;GameModel96662443 -->
<g id="edge17" class="edge">
<title>JPanelPartita1100698658&#45;&gt;GameModel96662443</title>
<path fill="none" stroke="black" d="M819.82,-1445.1C822.2,-1411.14 824,-1385.6 824,-1385.6 824,-1385.6 832.06,-1074.96 835.49,-942.79"/>
<polygon fill="black" stroke="black" points="838.99,-942.54 835.75,-932.46 832,-942.36 838.99,-942.54"/>
<text text-anchor="middle" x="864.43" y="-1211.2" font-family="Times New Roman,serif" font-size="14.00">gameModel</text>
<text text-anchor="middle" x="864.43" y="-1194.4" font-family="Times New Roman,serif" font-size="14.00">[0..1]</text>
</g>
<!-- JPanelPartita1100698658&#45;&gt;JFrameMain1100698658 -->
<g id="edge19" class="edge">
<title>JPanelPartita1100698658&#45;&gt;JFrameMain1100698658</title>
<path fill="none" stroke="black" d="M699.41,-1457.28C694.15,-1449.72 691,-1445.2 691,-1445.2 691,-1445.2 475,-1427.2 475,-1427.2 475,-1427.2 444.42,-1351.9 419.12,-1289.56"/>
<polygon fill="black" stroke="black" points="422.27,-1288.03 415.27,-1280.08 415.78,-1290.66 422.27,-1288.03"/>
<text text-anchor="middle" x="508.04" y="-1414.6" font-family="Times New Roman,serif" font-size="14.00">jframeMain</text>
<text text-anchor="middle" x="508.04" y="-1397.8" font-family="Times New Roman,serif" font-size="14.00">[0..1]</text>
</g>
<!-- Input1222358488 -->
<g id="node14" class="node">
<title>Input1222358488</title>
<polygon fill="#ffffff" stroke="transparent" points="1723,-1268 1481,-1268 1481,-1146 1723,-1146 1723,-1268"/>
<text text-anchor="start" x="1486" y="-1250.4" font-family="Times New Roman,serif" font-size="14.00">(C)Input</text>
<text text-anchor="start" x="1486" y="-1226.4" font-family="Times New Roman,serif" font-size="14.00">&#45; &#160;&#160;gameModel: GameModel [0..1]</text>
<text text-anchor="start" x="1486" y="-1202.4" font-family="Times New Roman,serif" font-size="14.00">&#45; &#160;&#160;input: Input [0..1]</text>
<text text-anchor="start" x="1485.94" y="-1178.4" font-family="Times New Roman,serif" font-size="14.00">&#45; &#160;&#160;logicaComandi: LogicaComandi [0..1]</text>
<text text-anchor="start" x="1486" y="-1154.4" font-family="Times New Roman,serif" font-size="14.00">&#45; &#160;&#160;logicaDialoghi: LogicaDialoghi [0..1]</text>
<polygon fill="black" stroke="black" points="1481,-1243 1481,-1243 1723,-1243 1723,-1243 1481,-1243"/>
<polygon fill="none" stroke="black" points="1481,-1146 1481,-1268 1723,-1268 1723,-1146 1481,-1146"/>
</g>
<!-- JPanelPartita1100698658&#45;&gt;Input1222358488 -->
<g id="edge18" class="edge">
<title>JPanelPartita1100698658&#45;&gt;Input1222358488</title>
<path fill="none" stroke="black" d="M916.53,-1576C1104.8,-1511.47 1472,-1385.6 1472,-1385.6 1472,-1385.6 1515.32,-1326.42 1551.94,-1276.39"/>
<polygon fill="black" stroke="black" points="1554.91,-1278.26 1557.99,-1268.13 1549.26,-1274.13 1554.91,-1278.26"/>
<text text-anchor="middle" x="1479.99" y="-1414.6" font-family="Times New Roman,serif" font-size="14.00">gestoreInput</text>
<text text-anchor="middle" x="1479.99" y="-1397.8" font-family="Times New Roman,serif" font-size="14.00">[0..1]</text>
</g>
<!-- Comando237703897 -->
<g id="node7" class="node">
<title>Comando237703897</title>
<polygon fill="#ffffff" stroke="transparent" points="1114.5,-621.2 939.5,-621.2 939.5,-523.2 1114.5,-523.2 1114.5,-621.2"/>
<text text-anchor="start" x="945" y="-603.6" font-family="Times New Roman,serif" font-size="14.00">(C)Comando</text>
<text text-anchor="start" x="944.76" y="-579.6" font-family="Times New Roman,serif" font-size="14.00">&#45; &#160;&#160;aliases: List&lt;String&gt; [0..*]</text>
<text text-anchor="start" x="945" y="-555.6" font-family="Times New Roman,serif" font-size="14.00">&#45; &#160;&#160;name: String [0..1]</text>
<text text-anchor="start" x="945" y="-531.6" font-family="Times New Roman,serif" font-size="14.00">&#45; &#160;&#160;type: TipoComando [0..1]</text>
<polygon fill="black" stroke="black" points="940,-596.2 940,-596.2 1115,-596.2 1115,-596.2 940,-596.2"/>
<polygon fill="none" stroke="black" points="939.5,-523.2 939.5,-621.2 1114.5,-621.2 1114.5,-523.2 939.5,-523.2"/>
</g>
<!-- Inventario237703897 -->
<g id="node9" class="node">
<title>Inventario237703897</title>
<polygon fill="#ffffff" stroke="transparent" points="1320,-381.6 1136,-381.6 1136,-331.6 1320,-331.6 1320,-381.6"/>
<text text-anchor="start" x="1141" y="-364" font-family="Times New Roman,serif" font-size="14.00">(C)Inventario</text>
<text text-anchor="start" x="1140.98" y="-340" font-family="Times New Roman,serif" font-size="14.00">&#45; &#160;&#160;oggetti: Set&lt;Oggetto&gt; [0..*]</text>
<polygon fill="black" stroke="black" points="1136,-356.6 1136,-356.6 1320,-356.6 1320,-356.6 1136,-356.6"/>
<polygon fill="none" stroke="black" points="1136,-331.6 1136,-381.6 1320,-381.6 1320,-331.6 1136,-331.6"/>
</g>
<!-- Giocatore237703897&#45;&gt;Inventario237703897 -->
<g id="edge4" class="edge">
<title>Giocatore237703897&#45;&gt;Inventario237703897</title>
<path fill="none" stroke="black" d="M1226.56,-511.13C1226.92,-472.66 1227.38,-424.12 1227.68,-392.03"/>
<polygon fill="black" stroke="black" points="1231.18,-391.85 1227.77,-381.82 1224.18,-391.78 1231.18,-391.85"/>
<text text-anchor="middle" x="1255.38" y="-480.6" font-family="Times New Roman,serif" font-size="14.00">inventario</text>
<text text-anchor="middle" x="1255.38" y="-463.8" font-family="Times New Roman,serif" font-size="14.00">[0..1]</text>
</g>
<!-- Giocatore237703897&#45;&gt;Stanza237703897 -->
<g id="edge5" class="edge">
<title>Giocatore237703897&#45;&gt;Stanza237703897</title>
<path fill="none" stroke="black" d="M1151.48,-511.13C1127.34,-491.67 1100,-469.64 1073.72,-448.46"/>
<polygon fill="black" stroke="black" points="1075.59,-445.47 1065.61,-441.92 1071.2,-450.92 1075.59,-445.47"/>
<text text-anchor="middle" x="1166.98" y="-480.6" font-family="Times New Roman,serif" font-size="14.00">stanzaCorrente</text>
<text text-anchor="middle" x="1166.98" y="-463.8" font-family="Times New Roman,serif" font-size="14.00">[0..1]</text>
</g>
<!-- Oggetto237703897 -->
<g id="node11" class="node">
<title>Oggetto237703897</title>
<polygon fill="#ffffff" stroke="transparent" points="1278,-166 1114,-166 1114,-68 1278,-68 1278,-166"/>
<text text-anchor="start" x="1119" y="-148.4" font-family="Times New Roman,serif" font-size="14.00">(C)Oggetto</text>
<text text-anchor="start" x="1118.83" y="-124.4" font-family="Times New Roman,serif" font-size="14.00">&#45; &#160;&#160;descrizione: String [0..1]</text>
<text text-anchor="start" x="1119" y="-100.4" font-family="Times New Roman,serif" font-size="14.00">&#45; &#160;&#160;id: int [1]</text>
<text text-anchor="start" x="1119" y="-76.4" font-family="Times New Roman,serif" font-size="14.00">&#45; &#160;&#160;nome: String [0..1]</text>
<polygon fill="black" stroke="black" points="1114,-141 1114,-141 1278,-141 1278,-141 1114,-141"/>
<polygon fill="none" stroke="black" points="1114,-68 1114,-166 1278,-166 1278,-68 1114,-68"/>
</g>
<!-- Inventario237703897&#45;&gt;Oggetto237703897 -->
<g id="edge9" class="edge">
<title>Inventario237703897&#45;&gt;Oggetto237703897</title>
<path fill="none" stroke="black" d="M1224.76,-331.51C1219.89,-295.42 1210.58,-226.23 1203.86,-176.38"/>
<polygon fill="black" stroke="black" points="1207.32,-175.81 1202.51,-166.37 1200.38,-176.75 1207.32,-175.81"/>
<text text-anchor="middle" x="1232.44" y="-241" font-family="Times New Roman,serif" font-size="14.00">oggetti</text>
<text text-anchor="middle" x="1232.44" y="-224.2" font-family="Times New Roman,serif" font-size="14.00">[0..*]</text>
</g>
<!-- Npc237703897 -->
<g id="node10" class="node">
<title>Npc237703897</title>
<polygon fill="#ffffff" stroke="transparent" points="1064.5,-202 857.5,-202 857.5,-32 1064.5,-32 1064.5,-202"/>
<text text-anchor="start" x="863" y="-184.4" font-family="Times New Roman,serif" font-size="14.00">(C)Npc</text>
<text text-anchor="start" x="863" y="-160.4" font-family="Times New Roman,serif" font-size="14.00">&#45; &#160;&#160;dialoghi: List&lt;String&gt; [0..*]</text>
<text text-anchor="start" x="863" y="-136.4" font-family="Times New Roman,serif" font-size="14.00">&#45; &#160;&#160;indovinello: Indovinello [0..1]</text>
<text text-anchor="start" x="863" y="-112.4" font-family="Times New Roman,serif" font-size="14.00">&#45; &#160;&#160;nome: String [0..1]</text>
<text text-anchor="start" x="862.82" y="-88.4" font-family="Times New Roman,serif" font-size="14.00">&#45; &#160;&#160;oggettiNpc: Set&lt;Oggetto&gt; [0..*]</text>
<text text-anchor="start" x="863" y="-64.4" font-family="Times New Roman,serif" font-size="14.00">&#45; &#160;&#160;tipo: TipoNpc [0..1]</text>
<text text-anchor="start" x="863" y="-40.4" font-family="Times New Roman,serif" font-size="14.00">&#45; &#160;&#160;visitato: boolean [1]</text>
<polygon fill="black" stroke="black" points="858,-177 858,-177 1065,-177 1065,-177 858,-177"/>
<polygon fill="none" stroke="black" points="857.5,-32 857.5,-202 1064.5,-202 1064.5,-32 857.5,-32"/>
</g>
<!-- Stanza237703897&#45;&gt;Npc237703897 -->
<g id="edge25" class="edge">
<title>Stanza237703897&#45;&gt;Npc237703897</title>
<path fill="none" stroke="black" d="M961,-271.5C961,-252.4 961,-231.99 961,-212.49"/>
<polygon fill="black" stroke="black" points="964.5,-212.39 961,-202.39 957.5,-212.39 964.5,-212.39"/>
<text text-anchor="middle" x="976.16" y="-241" font-family="Times New Roman,serif" font-size="14.00">npc</text>
<text text-anchor="middle" x="976.16" y="-224.2" font-family="Times New Roman,serif" font-size="14.00">[0..1]</text>
</g>
<!-- Stanza237703897&#45;&gt;Oggetto237703897 -->
<g id="edge26" class="edge">
<title>Stanza237703897&#45;&gt;Oggetto237703897</title>
<path fill="none" stroke="black" d="M1037.93,-271.26C1063.09,-243.69 1084.7,-220 1084.7,-220 1084.7,-220 1109.8,-197 1136.16,-172.84"/>
<polygon fill="black" stroke="black" points="1138.6,-175.35 1143.61,-166.01 1133.87,-170.19 1138.6,-175.35"/>
<text text-anchor="middle" x="1144.65" y="-241" font-family="Times New Roman,serif" font-size="14.00">oggettiPresentiStanza</text>
<text text-anchor="middle" x="1144.65" y="-224.2" font-family="Times New Roman,serif" font-size="14.00">[0..*]</text>
</g>
<!-- Init1222358488&#45;&gt;Comando237703897 -->
<g id="edge6" class="edge">
<title>Init1222358488&#45;&gt;Comando237703897</title>
<path fill="none" stroke="black" d="M1069.77,-1157.83C1061.28,-1031.22 1039,-698.8 1039,-698.8 1039,-698.8 1035.71,-664.32 1032.57,-631.5"/>
<polygon fill="black" stroke="black" points="1036.04,-631.02 1031.61,-621.4 1029.07,-631.69 1036.04,-631.02"/>
<text text-anchor="middle" x="1089.33" y="-887.6" font-family="Times New Roman,serif" font-size="14.00">commands</text>
<text text-anchor="middle" x="1089.33" y="-870.8" font-family="Times New Roman,serif" font-size="14.00">[0..*]</text>
</g>
<!-- Input1222358488&#45;&gt;GameModel96662443 -->
<g id="edge7" class="edge">
<title>Input1222358488&#45;&gt;GameModel96662443</title>
<path fill="none" stroke="black" d="M1536.62,-1145.65C1504.25,-1115.77 1472,-1086 1472,-1086 1472,-1086 929,-1016.4 929,-1016.4 929,-1016.4 901.38,-976.78 876.41,-940.95"/>
<polygon fill="black" stroke="black" points="879.06,-938.63 870.47,-932.43 873.32,-942.63 879.06,-938.63"/>
<text text-anchor="middle" x="1359.43" y="-1055.4" font-family="Times New Roman,serif" font-size="14.00">gameModel</text>
<text text-anchor="middle" x="1359.43" y="-1038.6" font-family="Times New Roman,serif" font-size="14.00">[0..1]</text>
</g>
<!-- LogicaComandi1222358488 -->
<g id="node15" class="node">
<title>LogicaComandi1222358488</title>
<polygon fill="#ffffff" stroke="transparent" points="1719.5,-1016.4 1482.5,-1016.4 1482.5,-750.4 1719.5,-750.4 1719.5,-1016.4"/>
<text text-anchor="start" x="1488" y="-998.8" font-family="Times New Roman,serif" font-size="14.00">(C)LogicaComandi</text>
<text text-anchor="start" x="1488" y="-974.8" font-family="Times New Roman,serif" font-size="14.00">&#45; &#160;&#160;gameModel: GameModel [0..1]</text>
<text text-anchor="start" x="1488" y="-950.8" font-family="Times New Roman,serif" font-size="14.00">&#45; &#160;&#160;giocatore: Giocatore [0..1]</text>
<text text-anchor="start" x="1488" y="-926.8" font-family="Times New Roman,serif" font-size="14.00">&#45; &#160;&#160;init: Init [0..1]</text>
<text text-anchor="start" x="1488" y="-902.8" font-family="Times New Roman,serif" font-size="14.00">&#45; &#160;&#160;input: Input [0..1]</text>
<text text-anchor="start" x="1488" y="-878.8" font-family="Times New Roman,serif" font-size="14.00">&#45; &#160;&#160;jInputTestoArea: JTextField [0..1]</text>
<text text-anchor="start" x="1488" y="-854.8" font-family="Times New Roman,serif" font-size="14.00">&#45; &#160;&#160;jOutputTestoArea: JTextArea [0..1]</text>
<text text-anchor="start" x="1488" y="-830.8" font-family="Times New Roman,serif" font-size="14.00">&#45; &#160;&#160;jPanelParita: JPanelPartita [0..1]</text>
<text text-anchor="start" x="1487.78" y="-806.8" font-family="Times New Roman,serif" font-size="14.00">&#45; &#160;&#160;logicaDialoghi: LogicaDialoghi [0..1]</text>
<text text-anchor="start" x="1488" y="-782.8" font-family="Times New Roman,serif" font-size="14.00">&#45; &#160;&#160;output: Output [0..1]</text>
<text text-anchor="start" x="1488" y="-758.8" font-family="Times New Roman,serif" font-size="14.00">&#45; &#160;&#160;stanze: List&lt;Stanza&gt; [0..*]</text>
<polygon fill="black" stroke="black" points="1483,-991.4 1483,-991.4 1720,-991.4 1720,-991.4 1483,-991.4"/>
<polygon fill="none" stroke="black" points="1482.5,-750.4 1482.5,-1016.4 1719.5,-1016.4 1719.5,-750.4 1482.5,-750.4"/>
</g>
<!-- Input1222358488&#45;&gt;LogicaComandi1222358488 -->
<g id="edge8" class="edge">
<title>Input1222358488&#45;&gt;LogicaComandi1222358488</title>
<path fill="none" stroke="black" d="M1603.74,-1145.87C1604.82,-1108.68 1606,-1068 1606,-1068 1606,-1068 1606,-1034.4 1606,-1034.4 1606,-1034.4 1605.91,-1031.56 1605.74,-1026.66"/>
<polygon fill="black" stroke="black" points="1609.24,-1026.48 1605.41,-1016.6 1602.24,-1026.72 1609.24,-1026.48"/>
<text text-anchor="middle" x="1648.77" y="-1055.4" font-family="Times New Roman,serif" font-size="14.00">logicaComandi</text>
<text text-anchor="middle" x="1648.77" y="-1038.6" font-family="Times New Roman,serif" font-size="14.00">[0..1]</text>
</g>
<!-- LogicaComandi1222358488&#45;&gt;GameModel96662443 -->
<g id="edge20" class="edge">
<title>LogicaComandi1222358488&#45;&gt;GameModel96662443</title>
<path fill="none" stroke="black" d="M1482.34,-956.13C1431.68,-987.18 1384,-1016.4 1384,-1016.4 1384,-1016.4 1023.43,-1042 1023.43,-1042 1023.43,-1042 956.57,-1042 956.57,-1042 956.57,-1042 929,-1016.4 929,-1016.4 929,-1016.4 901.75,-977 876.91,-941.09"/>
<polygon fill="black" stroke="black" points="879.56,-938.78 871,-932.55 873.81,-942.76 879.56,-938.78"/>
<text text-anchor="middle" x="990" y="-1055.4" font-family="Times New Roman,serif" font-size="14.00">gameModel</text>
<text text-anchor="middle" x="990" y="-1038.6" font-family="Times New Roman,serif" font-size="14.00">[0..1]</text>
</g>
<!-- LogicaComandi1222358488&#45;&gt;JPanelPartita1100698658 -->
<g id="edge22" class="edge">
<title>LogicaComandi1222358488&#45;&gt;JPanelPartita1100698658</title>
<path fill="none" stroke="black" d="M1719.51,-944.89C1835.86,-1004.27 1996,-1086 1996,-1086 1996,-1086 1996,-1385.6 1996,-1385.6 1996,-1385.6 1227.41,-1532.85 926.64,-1590.47"/>
<polygon fill="black" stroke="black" points="925.74,-1587.08 916.58,-1592.4 927.06,-1593.95 925.74,-1587.08"/>
<text text-anchor="middle" x="2029.82" y="-1211.2" font-family="Times New Roman,serif" font-size="14.00">jPanelParita</text>
<text text-anchor="middle" x="2029.82" y="-1194.4" font-family="Times New Roman,serif" font-size="14.00">[0..1]</text>
</g>
<!-- LogicaComandi1222358488&#45;&gt;Input1222358488 -->
<g id="edge21" class="edge">
<title>LogicaComandi1222358488&#45;&gt;Input1222358488</title>
<path fill="none" stroke="black" d="M1575.16,-1016.6C1573.03,-1027.48 1571.68,-1034.4 1571.68,-1034.4 1571.68,-1034.4 1571.68,-1068 1571.68,-1068 1571.68,-1068 1579.08,-1101.7 1586.57,-1135.8"/>
<polygon fill="black" stroke="black" points="1583.22,-1136.86 1588.79,-1145.87 1590.06,-1135.35 1583.22,-1136.86"/>
<text text-anchor="middle" x="1586.16" y="-1055.4" font-family="Times New Roman,serif" font-size="14.00">input</text>
<text text-anchor="middle" x="1586.16" y="-1038.6" font-family="Times New Roman,serif" font-size="14.00">[0..1]</text>
</g>
<!-- LogicaDialoghi1222358488 -->
<g id="node16" class="node">
<title>LogicaDialoghi1222358488</title>
<polygon fill="#ffffff" stroke="transparent" points="1986.5,-1328 1741.5,-1328 1741.5,-1086 1986.5,-1086 1986.5,-1328"/>
<text text-anchor="start" x="1747" y="-1310.4" font-family="Times New Roman,serif" font-size="14.00">(C)LogicaDialoghi</text>
<text text-anchor="start" x="1746.91" y="-1286.4" font-family="Times New Roman,serif" font-size="14.00">&#45; &#160;&#160;actionListeners: ActionListener[] [0..*]</text>
<text text-anchor="start" x="1747" y="-1262.4" font-family="Times New Roman,serif" font-size="14.00">&#45; &#160;&#160;giocatore: Giocatore [0..1]</text>
<text text-anchor="start" x="1747" y="-1238.4" font-family="Times New Roman,serif" font-size="14.00">&#45; &#160;&#160;inputListener: ActionListener [0..1]</text>
<text text-anchor="start" x="1747" y="-1214.4" font-family="Times New Roman,serif" font-size="14.00">&#45; &#160;&#160;jBottoneInvio: JButton [0..1]</text>
<text text-anchor="start" x="1747" y="-1190.4" font-family="Times New Roman,serif" font-size="14.00">&#45; &#160;&#160;jInputTestoArea: JTextField [0..1]</text>
<text text-anchor="start" x="1747" y="-1166.4" font-family="Times New Roman,serif" font-size="14.00">&#45; &#160;&#160;jOutputTestoArea: JTextArea [0..1]</text>
<text text-anchor="start" x="1747" y="-1142.4" font-family="Times New Roman,serif" font-size="14.00">&#45; &#160;&#160;keyListeners: KeyListener[] [0..*]</text>
<text text-anchor="start" x="1747" y="-1118.4" font-family="Times New Roman,serif" font-size="14.00">&#45; &#160;&#160;logicaComandi: LogicaComandi [0..1]</text>
<text text-anchor="start" x="1747" y="-1094.4" font-family="Times New Roman,serif" font-size="14.00">&#45; &#160;&#160;stanze: List&lt;Stanza&gt; [0..*]</text>
<polygon fill="black" stroke="black" points="1742,-1303 1742,-1303 1987,-1303 1987,-1303 1742,-1303"/>
<polygon fill="none" stroke="black" points="1741.5,-1086 1741.5,-1328 1986.5,-1328 1986.5,-1086 1741.5,-1086"/>
</g>
<!-- LogicaDialoghi1222358488&#45;&gt;LogicaComandi1222358488 -->
<g id="edge23" class="edge">
<title>LogicaDialoghi1222358488&#45;&gt;LogicaComandi1222358488</title>
<path fill="none" stroke="black" d="M1765.69,-1085.79C1749.33,-1065.78 1732.23,-1044.87 1715.5,-1024.42"/>
<polygon fill="black" stroke="black" points="1718.15,-1022.13 1709.11,-1016.6 1712.73,-1026.56 1718.15,-1022.13"/>
<text text-anchor="middle" x="1790.77" y="-1055.4" font-family="Times New Roman,serif" font-size="14.00">logicaComandi</text>
<text text-anchor="middle" x="1790.77" y="-1038.6" font-family="Times New Roman,serif" font-size="14.00">[0..1]</text>
</g>
<!-- Output1222358488 -->
<g id="node17" class="node">
<title>Output1222358488</title>
<polygon fill="#ffffff" stroke="transparent" points="1463,-1280 1223,-1280 1223,-1134 1463,-1134 1463,-1280"/>
<text text-anchor="start" x="1228" y="-1262.4" font-family="Times New Roman,serif" font-size="14.00">(C)Output</text>
<text text-anchor="start" x="1228" y="-1238.4" font-family="Times New Roman,serif" font-size="14.00">&#45; &#160;&#160;containerImmagini: JLabel [0..1]</text>
<text text-anchor="start" x="1228" y="-1214.4" font-family="Times New Roman,serif" font-size="14.00">&#45; &#160;&#160;giocatoreCorrente: Giocatore [0..1]</text>
<text text-anchor="start" x="1228" y="-1190.4" font-family="Times New Roman,serif" font-size="14.00">&#45; &#160;&#160;stanzaCambiata: boolean [1]</text>
<text text-anchor="start" x="1227.99" y="-1166.4" font-family="Times New Roman,serif" font-size="14.00">&#45; &#160;&#160;storiaMap: Map&lt;String, String&gt; [0..*]</text>
<text text-anchor="start" x="1228" y="-1142.4" font-family="Times New Roman,serif" font-size="14.00">&#45; &#160;&#160;storiaTextArea: JTextArea [0..1]</text>
<polygon fill="black" stroke="black" points="1223,-1255 1223,-1255 1463,-1255 1463,-1255 1223,-1255"/>
<polygon fill="none" stroke="black" points="1223,-1134 1223,-1280 1463,-1280 1463,-1134 1223,-1134"/>
</g>
<!-- Output1222358488&#45;&gt;Giocatore237703897 -->
<g id="edge24" class="edge">
<title>Output1222358488&#45;&gt;Giocatore237703897</title>
<path fill="none" stroke="black" d="M1312.12,-1133.77C1297.84,-1100.38 1284,-1068 1284,-1068 1284,-1068 1250.22,-779.85 1234.22,-643.33"/>
<polygon fill="black" stroke="black" points="1237.69,-642.9 1233.05,-633.38 1230.74,-643.72 1237.69,-642.9"/>
<text text-anchor="middle" x="1327.53" y="-887.6" font-family="Times New Roman,serif" font-size="14.00">giocatoreCorrente</text>
<text text-anchor="middle" x="1327.53" y="-870.8" font-family="Times New Roman,serif" font-size="14.00">[0..1]</text>
</g>
</g>
</svg>
