<?xml version="1.0" encoding="UTF-8" standalone="no"?>
<!DOCTYPE svg PUBLIC "-//W3C//DTD SVG 1.1//EN"
 "http://www.w3.org/Graphics/SVG/1.1/DTD/svg11.dtd">
<!-- Generated by graphviz version 2.44.1 (20200629.0846)
 -->
<!-- Title: g Pages: 1 -->
<svg width="1820pt" height="1561pt"
 viewBox="0.00 0.00 1820.00 1561.20" xmlns="http://www.w3.org/2000/svg" xmlns:xlink="http://www.w3.org/1999/xlink">
<g id="graph0" class="graph" transform="scale(1 1) rotate(0) translate(4 1557.2)">
<title>g</title>
<polygon fill="white" stroke="transparent" points="-4,4 -4,-1557.2 1816,-1557.2 1816,4 -4,4"/>
<g id="clust1" class="cluster">
<title>cluster_3371</title>
<polygon fill="#ececec" stroke="black" points="8,-8 8,-1545.2 1804,-1545.2 1804,-8 8,-8"/>
<text text-anchor="middle" x="19.89" y="-1528.6" font-family="Times New Roman,serif" font-size="14.00">it</text>
</g>
<g id="clust2" class="cluster">
<title>cluster_401995146</title>
<polygon fill="#d8d8d8" stroke="black" points="16,-16 16,-1512.4 1796,-1512.4 1796,-16 16,-16"/>
<text text-anchor="middle" x="39.55" y="-1495.8" font-family="Times New Roman,serif" font-size="14.00">gioco</text>
</g>
<g id="clust3" class="cluster">
<title>cluster_1720342979</title>
<polygon fill="#c4c4c4" stroke="black" points="887,-885.2 887,-1479.6 1788,-1479.6 1788,-885.2 887,-885.2"/>
<text text-anchor="middle" x="903.95" y="-1463" font-family="Times New Roman,serif" font-size="14.00">gui</text>
</g>
<g id="clust4" class="cluster">
<title>cluster_1791400870</title>
<polygon fill="#c4c4c4" stroke="black" points="332,-24 332,-666 864,-666 864,-24 332,-24"/>
<text text-anchor="middle" x="349.34" y="-649.4" font-family="Times New Roman,serif" font-size="14.00">tipi</text>
</g>
<g id="clust5" class="cluster">
<title>cluster_299903175</title>
<polygon fill="#c4c4c4" stroke="black" points="24,-897.2 24,-1443.6 818,-1443.6 818,-897.2 24,-897.2"/>
<text text-anchor="middle" x="44.06" y="-1427" font-family="Times New Roman,serif" font-size="14.00">utils</text>
</g>
<!-- GameModel96662443 -->
<g id="node1" class="node">
<title>GameModel96662443</title>
<polygon fill="#ffffff" stroke="transparent" points="906,-823.6 730,-823.6 730,-725.6 906,-725.6 906,-823.6"/>
<text text-anchor="start" x="735" y="-806" font-family="Times New Roman,serif" font-size="14.00">(C)GameModel</text>
<text text-anchor="start" x="735" y="-782" font-family="Times New Roman,serif" font-size="14.00">&#45; &#160;&#160;giocatore: Giocatore [0..1]</text>
<text text-anchor="start" x="735" y="-758" font-family="Times New Roman,serif" font-size="14.00">&#45; &#160;&#160;init: Init [0..1]</text>
<text text-anchor="start" x="734.88" y="-734" font-family="Times New Roman,serif" font-size="14.00">&#45; &#160;&#160;stanze: List&lt;Stanza&gt; [0..*]</text>
<polygon fill="black" stroke="black" points="730,-798.6 730,-798.6 906,-798.6 906,-798.6 730,-798.6"/>
<polygon fill="none" stroke="black" points="730,-725.6 730,-823.6 906,-823.6 906,-725.6 730,-725.6"/>
</g>
<!-- Giocatore237703897 -->
<g id="node8" class="node">
<title>Giocatore237703897</title>
<polygon fill="#ffffff" stroke="transparent" points="736.5,-633.2 549.5,-633.2 549.5,-511.2 736.5,-511.2 736.5,-633.2"/>
<text text-anchor="start" x="555" y="-615.6" font-family="Times New Roman,serif" font-size="14.00">(C)Giocatore</text>
<text text-anchor="start" x="555" y="-591.6" font-family="Times New Roman,serif" font-size="14.00">&#45; &#160;&#160;idUtente: int [1]</text>
<text text-anchor="start" x="555" y="-567.6" font-family="Times New Roman,serif" font-size="14.00">&#45; &#160;&#160;inventario: Inventario [0..1]</text>
<text text-anchor="start" x="555" y="-543.6" font-family="Times New Roman,serif" font-size="14.00">&#45; &#160;&#160;nickname: String [0..1]</text>
<text text-anchor="start" x="554.68" y="-519.6" font-family="Times New Roman,serif" font-size="14.00">&#45; &#160;&#160;stanzaCorrente: Stanza [0..1]</text>
<polygon fill="black" stroke="black" points="550,-608.2 550,-608.2 737,-608.2 737,-608.2 550,-608.2"/>
<polygon fill="none" stroke="black" points="549.5,-511.2 549.5,-633.2 736.5,-633.2 736.5,-511.2 549.5,-511.2"/>
</g>
<!-- GameModel96662443&#45;&gt;Giocatore237703897 -->
<g id="edge1" class="edge">
<title>GameModel96662443&#45;&gt;Giocatore237703897</title>
<path fill="none" stroke="black" d="M749.13,-725.29C734.78,-715.22 723.91,-707.6 723.91,-707.6 723.91,-707.6 704.39,-675.16 684.52,-642.16"/>
<polygon fill="black" stroke="black" points="687.35,-640.09 679.2,-633.32 681.36,-643.7 687.35,-640.09"/>
<text text-anchor="middle" x="749.04" y="-695" font-family="Times New Roman,serif" font-size="14.00">giocatore</text>
<text text-anchor="middle" x="749.04" y="-678.2" font-family="Times New Roman,serif" font-size="14.00">[0..1]</text>
</g>
<!-- Stanza237703897 -->
<g id="node12" class="node">
<title>Stanza237703897</title>
<polygon fill="#ffffff" stroke="transparent" points="855.5,-441.6 542.5,-441.6 542.5,-271.6 855.5,-271.6 855.5,-441.6"/>
<text text-anchor="start" x="548" y="-424" font-family="Times New Roman,serif" font-size="14.00">(C)Stanza</text>
<text text-anchor="start" x="548" y="-400" font-family="Times New Roman,serif" font-size="14.00">&#45; &#160;&#160;aperto: boolean [1]</text>
<text text-anchor="start" x="547.96" y="-376" font-family="Times New Roman,serif" font-size="14.00">&#45; &#160;&#160;connessioneStanze: Map&lt;Direzione, Stanza&gt; [0..*]</text>
<text text-anchor="start" x="548" y="-352" font-family="Times New Roman,serif" font-size="14.00">&#45; &#160;&#160;descrizione: String [0..1]</text>
<text text-anchor="start" x="548" y="-328" font-family="Times New Roman,serif" font-size="14.00">&#45; &#160;&#160;nome: String [0..1]</text>
<text text-anchor="start" x="548" y="-304" font-family="Times New Roman,serif" font-size="14.00">&#45; &#160;&#160;npc: Npc [0..1]</text>
<text text-anchor="start" x="548" y="-280" font-family="Times New Roman,serif" font-size="14.00">&#45; &#160;&#160;oggettiPresentiStanza: Set&lt;Oggetto&gt; [0..*]</text>
<polygon fill="black" stroke="black" points="543,-416.6 543,-416.6 856,-416.6 856,-416.6 543,-416.6"/>
<polygon fill="none" stroke="black" points="542.5,-271.6 542.5,-441.6 855.5,-441.6 855.5,-271.6 542.5,-271.6"/>
</g>
<!-- GameModel96662443&#45;&gt;Stanza237703897 -->
<g id="edge3" class="edge">
<title>GameModel96662443&#45;&gt;Stanza237703897</title>
<path fill="none" stroke="black" d="M804.79,-725.47C784.01,-649.72 746,-511.2 746,-511.2 746,-511.2 737.59,-483.71 727.88,-451.99"/>
<polygon fill="black" stroke="black" points="731.11,-450.58 724.84,-442.04 724.42,-452.63 731.11,-450.58"/>
<text text-anchor="middle" x="804.49" y="-576.4" font-family="Times New Roman,serif" font-size="14.00">stanze</text>
<text text-anchor="middle" x="804.49" y="-559.6" font-family="Times New Roman,serif" font-size="14.00">[0..*]</text>
</g>
<!-- Init1222358488 -->
<g id="node13" class="node">
<title>Init1222358488</title>
<polygon fill="#ffffff" stroke="transparent" points="296,-1326.8 32,-1326.8 32,-1228.8 296,-1228.8 296,-1326.8"/>
<text text-anchor="start" x="37" y="-1309.2" font-family="Times New Roman,serif" font-size="14.00">(C)Init</text>
<text text-anchor="start" x="36.93" y="-1285.2" font-family="Times New Roman,serif" font-size="14.00">&#45; &#160;&#160;commands: Map&lt;String, Comando&gt; [0..*]</text>
<text text-anchor="start" x="37" y="-1261.2" font-family="Times New Roman,serif" font-size="14.00">&#45; &#160;&#160;objectMapper: ObjectMapper [0..1]</text>
<text text-anchor="start" x="37" y="-1237.2" font-family="Times New Roman,serif" font-size="14.00">&#45; &#160;&#160;stopWords: Set&lt;String&gt; [0..*]</text>
<polygon fill="black" stroke="black" points="32,-1301.8 32,-1301.8 296,-1301.8 296,-1301.8 32,-1301.8"/>
<polygon fill="none" stroke="black" points="32,-1228.8 32,-1326.8 296,-1326.8 296,-1228.8 32,-1228.8"/>
</g>
<!-- GameModel96662443&#45;&gt;Init1222358488 -->
<g id="edge2" class="edge">
<title>GameModel96662443&#45;&gt;Init1222358488</title>
<path fill="none" stroke="black" d="M729.61,-795.05C641.12,-814.51 518,-841.6 518,-841.6 518,-841.6 457.68,-885.2 457.68,-885.2 457.68,-885.2 287.42,-1112.23 206.17,-1220.56"/>
<polygon fill="black" stroke="black" points="203.21,-1218.68 200.01,-1228.78 208.81,-1222.88 203.21,-1218.68"/>
<text text-anchor="middle" x="472.16" y="-970.4" font-family="Times New Roman,serif" font-size="14.00">init</text>
<text text-anchor="middle" x="472.16" y="-953.6" font-family="Times New Roman,serif" font-size="14.00">[0..1]</text>
</g>
<!-- JFrameMain1100698658 -->
<g id="node2" class="node">
<title>JFrameMain1100698658</title>
<polygon fill="#ffffff" stroke="transparent" points="1103.5,-1039.2 900.5,-1039.2 900.5,-893.2 1103.5,-893.2 1103.5,-1039.2"/>
<text text-anchor="start" x="906" y="-1021.6" font-family="Times New Roman,serif" font-size="14.00">(C)JFrameMain</text>
<text text-anchor="start" x="906" y="-997.6" font-family="Times New Roman,serif" font-size="14.00">&#45; &#160;&#160;cardLayout: CardLayout [0..1]</text>
<text text-anchor="start" x="906" y="-973.6" font-family="Times New Roman,serif" font-size="14.00">&#45; &#160;&#160;cardsPanel: JPanel [0..1]</text>
<text text-anchor="start" x="905.89" y="-949.6" font-family="Times New Roman,serif" font-size="14.00">&#45; &#160;&#160;gameModel: GameModel [0..1]</text>
<text text-anchor="start" x="906" y="-925.6" font-family="Times New Roman,serif" font-size="14.00">&#45; &#160;&#160;jButton1: JButton [0..1]</text>
<text text-anchor="start" x="906" y="-901.6" font-family="Times New Roman,serif" font-size="14.00">&#45; &#160;&#160;jButton2: JButton [0..1]</text>
<polygon fill="black" stroke="black" points="901,-1014.2 901,-1014.2 1104,-1014.2 1104,-1014.2 901,-1014.2"/>
<polygon fill="none" stroke="black" points="900.5,-893.2 900.5,-1039.2 1103.5,-1039.2 1103.5,-893.2 900.5,-893.2"/>
</g>
<!-- JFrameMain1100698658&#45;&gt;GameModel96662443 -->
<g id="edge9" class="edge">
<title>JFrameMain1100698658&#45;&gt;GameModel96662443</title>
<path fill="none" stroke="black" d="M931.91,-892.98C912.01,-872.47 890.66,-850.47 871.88,-831.12"/>
<polygon fill="black" stroke="black" points="874.29,-828.58 864.81,-823.84 869.27,-833.45 874.29,-828.58"/>
<text text-anchor="middle" x="943.43" y="-862.6" font-family="Times New Roman,serif" font-size="14.00">gameModel</text>
<text text-anchor="middle" x="943.43" y="-845.8" font-family="Times New Roman,serif" font-size="14.00">[0..1]</text>
</g>
<!-- JPanelMenu1100698658 -->
<g id="node3" class="node">
<title>JPanelMenu1100698658</title>
<polygon fill="#ffffff" stroke="transparent" points="1333.5,-1350.8 1130.5,-1350.8 1130.5,-1204.8 1333.5,-1204.8 1333.5,-1350.8"/>
<text text-anchor="start" x="1136" y="-1333.2" font-family="Times New Roman,serif" font-size="14.00">(C)JPanelMenu</text>
<text text-anchor="start" x="1136" y="-1309.2" font-family="Times New Roman,serif" font-size="14.00">&#45; &#160;&#160;caricaPartita1: JButton [0..1]</text>
<text text-anchor="start" x="1136" y="-1285.2" font-family="Times New Roman,serif" font-size="14.00">&#45; &#160;&#160;esci: JButton [0..1]</text>
<text text-anchor="start" x="1135.89" y="-1261.2" font-family="Times New Roman,serif" font-size="14.00">&#45; &#160;&#160;gameModel: GameModel [0..1]</text>
<text text-anchor="start" x="1135.89" y="-1237.2" font-family="Times New Roman,serif" font-size="14.00">&#45; &#160;&#160;jframeMain: JFrameMain [0..1]</text>
<text text-anchor="start" x="1136" y="-1213.2" font-family="Times New Roman,serif" font-size="14.00">&#45; &#160;&#160;nuovaPartita: JButton [0..1]</text>
<polygon fill="black" stroke="black" points="1131,-1325.8 1131,-1325.8 1334,-1325.8 1334,-1325.8 1131,-1325.8"/>
<polygon fill="none" stroke="black" points="1130.5,-1204.8 1130.5,-1350.8 1333.5,-1350.8 1333.5,-1204.8 1130.5,-1204.8"/>
</g>
<!-- JPanelMenu1100698658&#45;&gt;GameModel96662443 -->
<g id="edge10" class="edge">
<title>JPanelMenu1100698658&#45;&gt;GameModel96662443</title>
<path fill="none" stroke="black" d="M1253.29,-1204.54C1273.88,-1134.64 1302,-1039.2 1302,-1039.2 1302,-1039.2 1302,-885.2 1302,-885.2 1302,-885.2 1057.68,-829.87 916.21,-797.84"/>
<polygon fill="black" stroke="black" points="916.74,-794.37 906.21,-795.57 915.19,-801.2 916.74,-794.37"/>
<text text-anchor="middle" x="1335.43" y="-970.4" font-family="Times New Roman,serif" font-size="14.00">gameModel</text>
<text text-anchor="middle" x="1335.43" y="-953.6" font-family="Times New Roman,serif" font-size="14.00">[0..1]</text>
</g>
<!-- JPanelMenu1100698658&#45;&gt;JFrameMain1100698658 -->
<g id="edge11" class="edge">
<title>JPanelMenu1100698658&#45;&gt;JFrameMain1100698658</title>
<path fill="none" stroke="black" d="M1184.71,-1204.58C1154.9,-1159.04 1122,-1108.8 1122,-1108.8 1122,-1108.8 1002.92,-1090.8 1002.92,-1090.8 1002.92,-1090.8 1002.78,-1072.36 1002.61,-1049.73"/>
<polygon fill="black" stroke="black" points="1006.11,-1049.43 1002.54,-1039.46 999.11,-1049.48 1006.11,-1049.43"/>
<text text-anchor="middle" x="1035.04" y="-1078.2" font-family="Times New Roman,serif" font-size="14.00">jframeMain</text>
<text text-anchor="middle" x="1035.04" y="-1061.4" font-family="Times New Roman,serif" font-size="14.00">[0..1]</text>
</g>
<!-- JPanelMostraPartite1100698658 -->
<g id="node4" class="node">
<title>JPanelMostraPartite1100698658</title>
<polygon fill="#ffffff" stroke="transparent" points="1558.5,-1374.8 1351.5,-1374.8 1351.5,-1180.8 1558.5,-1180.8 1558.5,-1374.8"/>
<text text-anchor="start" x="1357" y="-1357.2" font-family="Times New Roman,serif" font-size="14.00">(C)JPanelMostraPartite</text>
<text text-anchor="start" x="1357" y="-1333.2" font-family="Times New Roman,serif" font-size="14.00">&#45; &#160;&#160;gameModel: GameModel [0..1]</text>
<text text-anchor="start" x="1356.54" y="-1309.2" font-family="Times New Roman,serif" font-size="14.00">&#45; &#160;&#160;jButtonCancella1: JButton [0..1]</text>
<text text-anchor="start" x="1357" y="-1285.2" font-family="Times New Roman,serif" font-size="14.00">&#45; &#160;&#160;jButtonCarica: JButton [0..1]</text>
<text text-anchor="start" x="1357" y="-1261.2" font-family="Times New Roman,serif" font-size="14.00">&#45; &#160;&#160;jButtonIndietro: JButton [0..1]</text>
<text text-anchor="start" x="1357" y="-1237.2" font-family="Times New Roman,serif" font-size="14.00">&#45; &#160;&#160;jScrollPane1: JScrollPane [0..1]</text>
<text text-anchor="start" x="1357" y="-1213.2" font-family="Times New Roman,serif" font-size="14.00">&#45; &#160;&#160;jTablePartite: JTable [0..1]</text>
<text text-anchor="start" x="1357" y="-1189.2" font-family="Times New Roman,serif" font-size="14.00">&#45; &#160;&#160;jframeMain: JFrameMain [0..1]</text>
<polygon fill="black" stroke="black" points="1352,-1349.8 1352,-1349.8 1559,-1349.8 1559,-1349.8 1352,-1349.8"/>
<polygon fill="none" stroke="black" points="1351.5,-1180.8 1351.5,-1374.8 1558.5,-1374.8 1558.5,-1180.8 1351.5,-1180.8"/>
</g>
<!-- JPanelMostraPartite1100698658&#45;&gt;GameModel96662443 -->
<g id="edge12" class="edge">
<title>JPanelMostraPartite1100698658&#45;&gt;GameModel96662443</title>
<path fill="none" stroke="black" d="M1434.89,-1180.75C1410.61,-1064.81 1373,-885.2 1373,-885.2 1373,-885.2 1191,-841.6 1191,-841.6 1191,-841.6 1026.76,-812.54 916.25,-792.98"/>
<polygon fill="black" stroke="black" points="916.85,-789.54 906.4,-791.24 915.63,-796.43 916.85,-789.54"/>
<text text-anchor="middle" x="1437.43" y="-970.4" font-family="Times New Roman,serif" font-size="14.00">gameModel</text>
<text text-anchor="middle" x="1437.43" y="-953.6" font-family="Times New Roman,serif" font-size="14.00">[0..1]</text>
</g>
<!-- JPanelMostraPartite1100698658&#45;&gt;JFrameMain1100698658 -->
<g id="edge13" class="edge">
<title>JPanelMostraPartite1100698658&#45;&gt;JFrameMain1100698658</title>
<path fill="none" stroke="black" d="M1390.82,-1180.53C1365.8,-1143 1343,-1108.8 1343,-1108.8 1343,-1108.8 1091.92,-1090.8 1091.92,-1090.8 1091.92,-1090.8 1069,-1057.2 1069,-1057.2 1069,-1057.2 1066.31,-1053.58 1062,-1047.8"/>
<polygon fill="black" stroke="black" points="1064.54,-1045.35 1055.76,-1039.42 1058.93,-1049.53 1064.54,-1045.35"/>
<text text-anchor="middle" x="1124.04" y="-1078.2" font-family="Times New Roman,serif" font-size="14.00">jframeMain</text>
<text text-anchor="middle" x="1124.04" y="-1061.4" font-family="Times New Roman,serif" font-size="14.00">[0..1]</text>
</g>
<!-- JPanelNuovoGioco1100698658 -->
<g id="node5" class="node">
<title>JPanelNuovoGioco1100698658</title>
<polygon fill="#ffffff" stroke="transparent" points="1779.5,-1362.8 1576.5,-1362.8 1576.5,-1192.8 1779.5,-1192.8 1779.5,-1362.8"/>
<text text-anchor="start" x="1582" y="-1345.2" font-family="Times New Roman,serif" font-size="14.00">(C)JPanelNuovoGioco</text>
<text text-anchor="start" x="1582" y="-1321.2" font-family="Times New Roman,serif" font-size="14.00">&#45; &#160;&#160;conferma: JButton [0..1]</text>
<text text-anchor="start" x="1581.89" y="-1297.2" font-family="Times New Roman,serif" font-size="14.00">&#45; &#160;&#160;gameModel: GameModel [0..1]</text>
<text text-anchor="start" x="1582" y="-1273.2" font-family="Times New Roman,serif" font-size="14.00">&#45; &#160;&#160;indietro: JButton [0..1]</text>
<text text-anchor="start" x="1582" y="-1249.2" font-family="Times New Roman,serif" font-size="14.00">&#45; &#160;&#160;jNickname: JTextField [0..1]</text>
<text text-anchor="start" x="1581.89" y="-1225.2" font-family="Times New Roman,serif" font-size="14.00">&#45; &#160;&#160;jframeMain: JFrameMain [0..1]</text>
<text text-anchor="start" x="1582" y="-1201.2" font-family="Times New Roman,serif" font-size="14.00">&#45; &#160;&#160;nicknameLabel: JLabel [0..1]</text>
<polygon fill="black" stroke="black" points="1577,-1337.8 1577,-1337.8 1780,-1337.8 1780,-1337.8 1577,-1337.8"/>
<polygon fill="none" stroke="black" points="1576.5,-1192.8 1576.5,-1362.8 1779.5,-1362.8 1779.5,-1192.8 1576.5,-1192.8"/>
</g>
<!-- JPanelNuovoGioco1100698658&#45;&gt;GameModel96662443 -->
<g id="edge14" class="edge">
<title>JPanelNuovoGioco1100698658&#45;&gt;GameModel96662443</title>
<path fill="none" stroke="black" d="M1634.45,-1192.79C1574.8,-1077.73 1475,-885.2 1475,-885.2 1475,-885.2 1266,-841.6 1266,-841.6 1266,-841.6 1048.25,-809.52 916.37,-790.09"/>
<polygon fill="black" stroke="black" points="916.65,-786.6 906.24,-788.6 915.63,-793.52 916.65,-786.6"/>
<text text-anchor="middle" x="1586.43" y="-970.4" font-family="Times New Roman,serif" font-size="14.00">gameModel</text>
<text text-anchor="middle" x="1586.43" y="-953.6" font-family="Times New Roman,serif" font-size="14.00">[0..1]</text>
</g>
<!-- JPanelNuovoGioco1100698658&#45;&gt;JFrameMain1100698658 -->
<g id="edge15" class="edge">
<title>JPanelNuovoGioco1100698658&#45;&gt;JFrameMain1100698658</title>
<path fill="none" stroke="black" d="M1622.68,-1192.31C1595.29,-1150.47 1568,-1108.8 1568,-1108.8 1568,-1108.8 1180,-1090.8 1180,-1090.8 1180,-1090.8 1158,-1057.2 1158,-1057.2 1158,-1057.2 1128.69,-1046.65 1113.15,-1040.48"/>
<polygon fill="black" stroke="black" points="1114.54,-1037.26 1103.97,-1036.47 1111.73,-1043.68 1114.54,-1037.26"/>
<text text-anchor="middle" x="1213.04" y="-1078.2" font-family="Times New Roman,serif" font-size="14.00">jframeMain</text>
<text text-anchor="middle" x="1213.04" y="-1061.4" font-family="Times New Roman,serif" font-size="14.00">[0..1]</text>
</g>
<!-- JPanelPartita1100698658 -->
<g id="node6" class="node">
<title>JPanelPartita1100698658</title>
<polygon fill="#ffffff" stroke="transparent" points="1112.5,-1446.8 895.5,-1446.8 895.5,-1108.8 1112.5,-1108.8 1112.5,-1446.8"/>
<text text-anchor="start" x="901" y="-1429.2" font-family="Times New Roman,serif" font-size="14.00">(C)JPanelPartita</text>
<text text-anchor="start" x="901" y="-1405.2" font-family="Times New Roman,serif" font-size="14.00">&#45; &#160;&#160;gameModel: GameModel [0..1]</text>
<text text-anchor="start" x="901" y="-1381.2" font-family="Times New Roman,serif" font-size="14.00">&#45; &#160;&#160;gestoreInput: Input [0..1]</text>
<text text-anchor="start" x="901" y="-1357.2" font-family="Times New Roman,serif" font-size="14.00">&#45; &#160;&#160;giocatore: Giocatore [0..1]</text>
<text text-anchor="start" x="901" y="-1333.2" font-family="Times New Roman,serif" font-size="14.00">&#45; &#160;&#160;init: Init [0..1]</text>
<text text-anchor="start" x="901" y="-1309.2" font-family="Times New Roman,serif" font-size="14.00">+ &#160;&#160;jAreaTesto: JTextArea [0..1]</text>
<text text-anchor="start" x="901" y="-1285.2" font-family="Times New Roman,serif" font-size="14.00">&#45; &#160;&#160;jCancellaButton1: JButton [0..1]</text>
<text text-anchor="start" x="900.89" y="-1261.2" font-family="Times New Roman,serif" font-size="14.00">&#45; &#160;&#160;jContainerImmagini: JLabel [0..1]</text>
<text text-anchor="start" x="901" y="-1237.2" font-family="Times New Roman,serif" font-size="14.00">&#45; &#160;&#160;jIndietroButton: JButton [0..1]</text>
<text text-anchor="start" x="900.5" y="-1213.2" font-family="Times New Roman,serif" font-size="14.00">&#45; &#160;&#160;jInputTestoArea: JTextField [0..1]</text>
<text text-anchor="start" x="901" y="-1189.2" font-family="Times New Roman,serif" font-size="14.00">&#45; &#160;&#160;jInvioButtone: JButton [0..1]</text>
<text text-anchor="start" x="901" y="-1165.2" font-family="Times New Roman,serif" font-size="14.00">&#45; &#160;&#160;jScrollPane1: JScrollPane [0..1]</text>
<text text-anchor="start" x="901" y="-1141.2" font-family="Times New Roman,serif" font-size="14.00">&#45; &#160;&#160;jframeMain: JFrameMain [0..1]</text>
<text text-anchor="start" x="901" y="-1117.2" font-family="Times New Roman,serif" font-size="14.00">&#45; &#160;&#160;stanze: List&lt;Stanza&gt; [0..*]</text>
<polygon fill="black" stroke="black" points="896,-1421.8 896,-1421.8 1113,-1421.8 1113,-1421.8 896,-1421.8"/>
<polygon fill="none" stroke="black" points="895.5,-1108.8 895.5,-1446.8 1112.5,-1446.8 1112.5,-1108.8 895.5,-1108.8"/>
</g>
<!-- JPanelPartita1100698658&#45;&gt;GameModel96662443 -->
<g id="edge16" class="edge">
<title>JPanelPartita1100698658&#45;&gt;GameModel96662443</title>
<path fill="none" stroke="black" d="M1112.54,-1122.26C1118.43,-1113.88 1122,-1108.8 1122,-1108.8 1122,-1108.8 1247,-1090.8 1247,-1090.8 1247,-1090.8 1247,-1057.2 1247,-1057.2 1247,-1057.2 1113,-885.2 1113,-885.2 1113,-885.2 1001.55,-843.79 915.66,-811.88"/>
<polygon fill="black" stroke="black" points="916.7,-808.54 906.11,-808.34 914.27,-815.1 916.7,-808.54"/>
<text text-anchor="middle" x="1264.43" y="-970.4" font-family="Times New Roman,serif" font-size="14.00">gameModel</text>
<text text-anchor="middle" x="1264.43" y="-953.6" font-family="Times New Roman,serif" font-size="14.00">[0..1]</text>
</g>
<!-- JPanelPartita1100698658&#45;&gt;JFrameMain1100698658 -->
<g id="edge18" class="edge">
<title>JPanelPartita1100698658&#45;&gt;JFrameMain1100698658</title>
<path fill="none" stroke="black" d="M922.56,-1108.63C917.22,-1097.61 913.92,-1090.8 913.92,-1090.8 913.92,-1090.8 913.92,-1057.2 913.92,-1057.2 913.92,-1057.2 917.95,-1053.08 924.28,-1046.61"/>
<polygon fill="black" stroke="black" points="926.83,-1049.01 931.32,-1039.42 921.82,-1044.12 926.83,-1049.01"/>
<text text-anchor="middle" x="946.04" y="-1078.2" font-family="Times New Roman,serif" font-size="14.00">jframeMain</text>
<text text-anchor="middle" x="946.04" y="-1061.4" font-family="Times New Roman,serif" font-size="14.00">[0..1]</text>
</g>
<!-- Input1222358488 -->
<g id="node14" class="node">
<title>Input1222358488</title>
<polygon fill="#ffffff" stroke="transparent" points="810,-1027.2 568,-1027.2 568,-905.2 810,-905.2 810,-1027.2"/>
<text text-anchor="start" x="573" y="-1009.6" font-family="Times New Roman,serif" font-size="14.00">(C)Input</text>
<text text-anchor="start" x="573" y="-985.6" font-family="Times New Roman,serif" font-size="14.00">&#45; &#160;&#160;gameModel: GameModel [0..1]</text>
<text text-anchor="start" x="573" y="-961.6" font-family="Times New Roman,serif" font-size="14.00">&#45; &#160;&#160;input: Input [0..1]</text>
<text text-anchor="start" x="572.94" y="-937.6" font-family="Times New Roman,serif" font-size="14.00">&#45; &#160;&#160;logicaComandi: LogicaComandi [0..1]</text>
<text text-anchor="start" x="573" y="-913.6" font-family="Times New Roman,serif" font-size="14.00">&#45; &#160;&#160;logicaDialoghi: LogicaDialoghi [0..1]</text>
<polygon fill="black" stroke="black" points="568,-1002.2 568,-1002.2 810,-1002.2 810,-1002.2 568,-1002.2"/>
<polygon fill="none" stroke="black" points="568,-905.2 568,-1027.2 810,-1027.2 810,-905.2 568,-905.2"/>
</g>
<!-- JPanelPartita1100698658&#45;&gt;Input1222358488 -->
<g id="edge17" class="edge">
<title>JPanelPartita1100698658&#45;&gt;Input1222358488</title>
<path fill="none" stroke="black" d="M895.15,-1169.82C849.45,-1124.9 797.69,-1074.02 757.46,-1034.49"/>
<polygon fill="black" stroke="black" points="759.67,-1031.76 750.09,-1027.24 754.77,-1036.75 759.67,-1031.76"/>
<text text-anchor="middle" x="843.99" y="-1078.2" font-family="Times New Roman,serif" font-size="14.00">gestoreInput</text>
<text text-anchor="middle" x="843.99" y="-1061.4" font-family="Times New Roman,serif" font-size="14.00">[0..1]</text>
</g>
<!-- Comando237703897 -->
<g id="node7" class="node">
<title>Comando237703897</title>
<polygon fill="#ffffff" stroke="transparent" points="515.5,-621.2 340.5,-621.2 340.5,-523.2 515.5,-523.2 515.5,-621.2"/>
<text text-anchor="start" x="346" y="-603.6" font-family="Times New Roman,serif" font-size="14.00">(C)Comando</text>
<text text-anchor="start" x="345.76" y="-579.6" font-family="Times New Roman,serif" font-size="14.00">&#45; &#160;&#160;aliases: List&lt;String&gt; [0..*]</text>
<text text-anchor="start" x="346" y="-555.6" font-family="Times New Roman,serif" font-size="14.00">&#45; &#160;&#160;name: String [0..1]</text>
<text text-anchor="start" x="346" y="-531.6" font-family="Times New Roman,serif" font-size="14.00">&#45; &#160;&#160;type: TipoComando [0..1]</text>
<polygon fill="black" stroke="black" points="341,-596.2 341,-596.2 516,-596.2 516,-596.2 341,-596.2"/>
<polygon fill="none" stroke="black" points="340.5,-523.2 340.5,-621.2 515.5,-621.2 515.5,-523.2 340.5,-523.2"/>
</g>
<!-- Inventario237703897 -->
<g id="node9" class="node">
<title>Inventario237703897</title>
<polygon fill="#ffffff" stroke="transparent" points="524,-381.6 340,-381.6 340,-331.6 524,-331.6 524,-381.6"/>
<text text-anchor="start" x="345" y="-364" font-family="Times New Roman,serif" font-size="14.00">(C)Inventario</text>
<text text-anchor="start" x="344.98" y="-340" font-family="Times New Roman,serif" font-size="14.00">&#45; &#160;&#160;oggetti: Set&lt;Oggetto&gt; [0..*]</text>
<polygon fill="black" stroke="black" points="340,-356.6 340,-356.6 524,-356.6 524,-356.6 340,-356.6"/>
<polygon fill="none" stroke="black" points="340,-331.6 340,-381.6 524,-381.6 524,-331.6 340,-331.6"/>
</g>
<!-- Giocatore237703897&#45;&gt;Inventario237703897 -->
<g id="edge4" class="edge">
<title>Giocatore237703897&#45;&gt;Inventario237703897</title>
<path fill="none" stroke="black" d="M557.65,-511.09C542.92,-500.72 532.24,-493.2 532.24,-493.2 532.24,-493.2 485.62,-430.14 455.97,-390.02"/>
<polygon fill="black" stroke="black" points="458.68,-387.8 449.92,-381.84 453.05,-391.96 458.68,-387.8"/>
<text text-anchor="middle" x="560.38" y="-480.6" font-family="Times New Roman,serif" font-size="14.00">inventario</text>
<text text-anchor="middle" x="560.38" y="-463.8" font-family="Times New Roman,serif" font-size="14.00">[0..1]</text>
</g>
<!-- Giocatore237703897&#45;&gt;Stanza237703897 -->
<g id="edge5" class="edge">
<title>Giocatore237703897&#45;&gt;Stanza237703897</title>
<path fill="none" stroke="black" d="M604.38,-510.9C597.8,-500.63 593.04,-493.2 593.04,-493.2 593.04,-493.2 593.04,-459.6 593.04,-459.6 593.04,-459.6 597.25,-455.55 603.98,-449.07"/>
<polygon fill="black" stroke="black" points="606.72,-451.29 611.5,-441.83 601.87,-446.25 606.72,-451.29"/>
<text text-anchor="middle" x="634.98" y="-480.6" font-family="Times New Roman,serif" font-size="14.00">stanzaCorrente</text>
<text text-anchor="middle" x="634.98" y="-463.8" font-family="Times New Roman,serif" font-size="14.00">[0..1]</text>
</g>
<!-- Oggetto237703897 -->
<g id="node11" class="node">
<title>Oggetto237703897</title>
<polygon fill="#ffffff" stroke="transparent" points="554,-166 390,-166 390,-68 554,-68 554,-166"/>
<text text-anchor="start" x="395" y="-148.4" font-family="Times New Roman,serif" font-size="14.00">(C)Oggetto</text>
<text text-anchor="start" x="394.83" y="-124.4" font-family="Times New Roman,serif" font-size="14.00">&#45; &#160;&#160;descrizione: String [0..1]</text>
<text text-anchor="start" x="395" y="-100.4" font-family="Times New Roman,serif" font-size="14.00">&#45; &#160;&#160;id: int [1]</text>
<text text-anchor="start" x="395" y="-76.4" font-family="Times New Roman,serif" font-size="14.00">&#45; &#160;&#160;nome: String [0..1]</text>
<polygon fill="black" stroke="black" points="390,-141 390,-141 554,-141 554,-141 390,-141"/>
<polygon fill="none" stroke="black" points="390,-68 390,-166 554,-166 554,-68 390,-68"/>
</g>
<!-- Inventario237703897&#45;&gt;Oggetto237703897 -->
<g id="edge8" class="edge">
<title>Inventario237703897&#45;&gt;Oggetto237703897</title>
<path fill="none" stroke="black" d="M436.06,-331.51C442.13,-295.42 453.78,-226.23 462.17,-176.38"/>
<polygon fill="black" stroke="black" points="465.65,-176.81 463.86,-166.37 458.74,-175.65 465.65,-176.81"/>
<text text-anchor="middle" x="473.44" y="-241" font-family="Times New Roman,serif" font-size="14.00">oggetti</text>
<text text-anchor="middle" x="473.44" y="-224.2" font-family="Times New Roman,serif" font-size="14.00">[0..*]</text>
</g>
<!-- Npc237703897 -->
<g id="node10" class="node">
<title>Npc237703897</title>
<polygon fill="#ffffff" stroke="transparent" points="802.5,-202 595.5,-202 595.5,-32 802.5,-32 802.5,-202"/>
<text text-anchor="start" x="601" y="-184.4" font-family="Times New Roman,serif" font-size="14.00">(C)Npc</text>
<text text-anchor="start" x="601" y="-160.4" font-family="Times New Roman,serif" font-size="14.00">&#45; &#160;&#160;dialoghi: List&lt;String&gt; [0..*]</text>
<text text-anchor="start" x="601" y="-136.4" font-family="Times New Roman,serif" font-size="14.00">&#45; &#160;&#160;indovinello: Indovinello [0..1]</text>
<text text-anchor="start" x="601" y="-112.4" font-family="Times New Roman,serif" font-size="14.00">&#45; &#160;&#160;nome: String [0..1]</text>
<text text-anchor="start" x="600.82" y="-88.4" font-family="Times New Roman,serif" font-size="14.00">&#45; &#160;&#160;oggettiNpc: Set&lt;Oggetto&gt; [0..*]</text>
<text text-anchor="start" x="601" y="-64.4" font-family="Times New Roman,serif" font-size="14.00">&#45; &#160;&#160;tipo: TipoNpc [0..1]</text>
<text text-anchor="start" x="601" y="-40.4" font-family="Times New Roman,serif" font-size="14.00">&#45; &#160;&#160;visitato: boolean [1]</text>
<polygon fill="black" stroke="black" points="596,-177 596,-177 803,-177 803,-177 596,-177"/>
<polygon fill="none" stroke="black" points="595.5,-32 595.5,-202 802.5,-202 802.5,-32 595.5,-32"/>
</g>
<!-- Stanza237703897&#45;&gt;Npc237703897 -->
<g id="edge23" class="edge">
<title>Stanza237703897&#45;&gt;Npc237703897</title>
<path fill="none" stroke="black" d="M699,-271.5C699,-252.4 699,-231.99 699,-212.49"/>
<polygon fill="black" stroke="black" points="702.5,-212.39 699,-202.39 695.5,-212.39 702.5,-212.39"/>
<text text-anchor="middle" x="714.16" y="-241" font-family="Times New Roman,serif" font-size="14.00">npc</text>
<text text-anchor="middle" x="714.16" y="-224.2" font-family="Times New Roman,serif" font-size="14.00">[0..1]</text>
</g>
<!-- Stanza237703897&#45;&gt;Oggetto237703897 -->
<g id="edge24" class="edge">
<title>Stanza237703897&#45;&gt;Oggetto237703897</title>
<path fill="none" stroke="black" d="M595.52,-271.37C582.54,-260.8 573.7,-253.6 573.7,-253.6 573.7,-253.6 542.3,-211.74 514.4,-174.53"/>
<polygon fill="black" stroke="black" points="516.94,-172.09 508.14,-166.19 511.34,-176.29 516.94,-172.09"/>
<text text-anchor="middle" x="633.65" y="-241" font-family="Times New Roman,serif" font-size="14.00">oggettiPresentiStanza</text>
<text text-anchor="middle" x="633.65" y="-224.2" font-family="Times New Roman,serif" font-size="14.00">[0..*]</text>
</g>
<!-- Init1222358488&#45;&gt;Comando237703897 -->
<g id="edge6" class="edge">
<title>Init1222358488&#45;&gt;Comando237703897</title>
<path fill="none" stroke="black" d="M177.49,-1228.78C206.86,-1124.21 274,-885.2 274,-885.2 274,-885.2 369,-674 369,-674 369,-674 381.33,-652.93 394.72,-630.05"/>
<polygon fill="black" stroke="black" points="397.85,-631.64 399.88,-621.24 391.81,-628.1 397.85,-631.64"/>
<text text-anchor="middle" x="323.33" y="-862.6" font-family="Times New Roman,serif" font-size="14.00">commands</text>
<text text-anchor="middle" x="323.33" y="-845.8" font-family="Times New Roman,serif" font-size="14.00">[0..*]</text>
</g>
<!-- Input1222358488&#45;&gt;GameModel96662443 -->
<g id="edge7" class="edge">
<title>Input1222358488&#45;&gt;GameModel96662443</title>
<path fill="none" stroke="black" d="M729.99,-904.95C745.89,-881.58 764,-854.96 779.64,-831.97"/>
<polygon fill="black" stroke="black" points="782.55,-833.92 785.29,-823.68 776.77,-829.98 782.55,-833.92"/>
<text text-anchor="middle" x="805.43" y="-862.6" font-family="Times New Roman,serif" font-size="14.00">gameModel</text>
<text text-anchor="middle" x="805.43" y="-845.8" font-family="Times New Roman,serif" font-size="14.00">[0..1]</text>
</g>
<!-- LogicaComandi1222358488 -->
<g id="node15" class="node">
<title>LogicaComandi1222358488</title>
<polygon fill="#ffffff" stroke="transparent" points="809.5,-1410.8 572.5,-1410.8 572.5,-1144.8 809.5,-1144.8 809.5,-1410.8"/>
<text text-anchor="start" x="578" y="-1393.2" font-family="Times New Roman,serif" font-size="14.00">(C)LogicaComandi</text>
<text text-anchor="start" x="578" y="-1369.2" font-family="Times New Roman,serif" font-size="14.00">&#45; &#160;&#160;gameModel: GameModel [0..1]</text>
<text text-anchor="start" x="578" y="-1345.2" font-family="Times New Roman,serif" font-size="14.00">&#45; &#160;&#160;giocatore: Giocatore [0..1]</text>
<text text-anchor="start" x="578" y="-1321.2" font-family="Times New Roman,serif" font-size="14.00">&#45; &#160;&#160;init: Init [0..1]</text>
<text text-anchor="start" x="578" y="-1297.2" font-family="Times New Roman,serif" font-size="14.00">&#45; &#160;&#160;input: Input [0..1]</text>
<text text-anchor="start" x="578" y="-1273.2" font-family="Times New Roman,serif" font-size="14.00">&#45; &#160;&#160;jInputTestoArea: JTextField [0..1]</text>
<text text-anchor="start" x="578" y="-1249.2" font-family="Times New Roman,serif" font-size="14.00">&#45; &#160;&#160;jOutputTestoArea: JTextArea [0..1]</text>
<text text-anchor="start" x="578" y="-1225.2" font-family="Times New Roman,serif" font-size="14.00">&#45; &#160;&#160;jPanelParita: JPanelPartita [0..1]</text>
<text text-anchor="start" x="577.78" y="-1201.2" font-family="Times New Roman,serif" font-size="14.00">&#45; &#160;&#160;logicaDialoghi: LogicaDialoghi [0..1]</text>
<text text-anchor="start" x="578" y="-1177.2" font-family="Times New Roman,serif" font-size="14.00">&#45; &#160;&#160;output: Output [0..1]</text>
<text text-anchor="start" x="578" y="-1153.2" font-family="Times New Roman,serif" font-size="14.00">&#45; &#160;&#160;stanze: List&lt;Stanza&gt; [0..*]</text>
<polygon fill="black" stroke="black" points="573,-1385.8 573,-1385.8 810,-1385.8 810,-1385.8 573,-1385.8"/>
<polygon fill="none" stroke="black" points="572.5,-1144.8 572.5,-1410.8 809.5,-1410.8 809.5,-1144.8 572.5,-1144.8"/>
</g>
<!-- LogicaComandi1222358488&#45;&gt;GameModel96662443 -->
<g id="edge19" class="edge">
<title>LogicaComandi1222358488&#45;&gt;GameModel96662443</title>
<path fill="none" stroke="black" d="M590.15,-1144.43C574.28,-1123.61 563,-1108.8 563,-1108.8 563,-1108.8 492.13,-1039.2 492.13,-1039.2 492.13,-1039.2 492.13,-885.2 492.13,-885.2 492.13,-885.2 624.09,-840.82 720.06,-808.54"/>
<polygon fill="black" stroke="black" points="721.45,-811.76 729.81,-805.26 719.22,-805.13 721.45,-811.76"/>
<text text-anchor="middle" x="525.43" y="-970.4" font-family="Times New Roman,serif" font-size="14.00">gameModel</text>
<text text-anchor="middle" x="525.43" y="-953.6" font-family="Times New Roman,serif" font-size="14.00">[0..1]</text>
</g>
<!-- LogicaComandi1222358488&#45;&gt;JPanelPartita1100698658 -->
<g id="edge21" class="edge">
<title>LogicaComandi1222358488&#45;&gt;JPanelPartita1100698658</title>
<path fill="none" stroke="black" d="M809.78,-1277.8C834.48,-1277.8 860.51,-1277.8 885.21,-1277.8"/>
<polygon fill="black" stroke="black" points="885.34,-1281.3 895.34,-1277.8 885.34,-1274.3 885.34,-1281.3"/>
<text text-anchor="middle" x="852.5" y="-1301.8" font-family="Times New Roman,serif" font-size="14.00">jPanelParita</text>
<text text-anchor="middle" x="852.5" y="-1285" font-family="Times New Roman,serif" font-size="14.00">[0..1]</text>
</g>
<!-- LogicaComandi1222358488&#45;&gt;Input1222358488 -->
<g id="edge20" class="edge">
<title>LogicaComandi1222358488&#45;&gt;Input1222358488</title>
<path fill="none" stroke="black" d="M690.15,-1144.6C689.91,-1107.82 689.66,-1069.31 689.45,-1037.59"/>
<polygon fill="black" stroke="black" points="692.95,-1037.53 689.39,-1027.55 685.95,-1037.57 692.95,-1037.53"/>
<text text-anchor="middle" x="704.16" y="-1078.2" font-family="Times New Roman,serif" font-size="14.00">input</text>
<text text-anchor="middle" x="704.16" y="-1061.4" font-family="Times New Roman,serif" font-size="14.00">[0..1]</text>
</g>
<!-- Output1222358488 -->
<g id="node16" class="node">
<title>Output1222358488</title>
<polygon fill="#ffffff" stroke="transparent" points="554,-1350.8 314,-1350.8 314,-1204.8 554,-1204.8 554,-1350.8"/>
<text text-anchor="start" x="319" y="-1333.2" font-family="Times New Roman,serif" font-size="14.00">(C)Output</text>
<text text-anchor="start" x="319" y="-1309.2" font-family="Times New Roman,serif" font-size="14.00">&#45; &#160;&#160;containerImmagini: JLabel [0..1]</text>
<text text-anchor="start" x="319" y="-1285.2" font-family="Times New Roman,serif" font-size="14.00">&#45; &#160;&#160;giocatoreCorrente: Giocatore [0..1]</text>
<text text-anchor="start" x="319" y="-1261.2" font-family="Times New Roman,serif" font-size="14.00">&#45; &#160;&#160;stanzaCambiata: boolean [1]</text>
<text text-anchor="start" x="318.99" y="-1237.2" font-family="Times New Roman,serif" font-size="14.00">&#45; &#160;&#160;storiaMap: Map&lt;String, String&gt; [0..*]</text>
<text text-anchor="start" x="319" y="-1213.2" font-family="Times New Roman,serif" font-size="14.00">&#45; &#160;&#160;storiaTextArea: JTextArea [0..1]</text>
<polygon fill="black" stroke="black" points="314,-1325.8 314,-1325.8 554,-1325.8 554,-1325.8 314,-1325.8"/>
<polygon fill="none" stroke="black" points="314,-1204.8 314,-1350.8 554,-1350.8 554,-1204.8 314,-1204.8"/>
</g>
<!-- Output1222358488&#45;&gt;Giocatore237703897 -->
<g id="edge22" class="edge">
<title>Output1222358488&#45;&gt;Giocatore237703897</title>
<path fill="none" stroke="black" d="M417.31,-1204.62C405.23,-1152.34 391,-1090.8 391,-1090.8 391,-1090.8 381,-885.2 381,-885.2 381,-885.2 369,-875.2 369,-875.2 369,-875.2 369,-841.6 369,-841.6 369,-841.6 374,-674 374,-674 374,-674 525,-666 525,-666 525,-666 539.61,-654.51 558.55,-639.61"/>
<polygon fill="black" stroke="black" points="560.91,-642.22 566.6,-633.28 556.58,-636.71 560.91,-642.22"/>
<text text-anchor="middle" x="419.53" y="-862.6" font-family="Times New Roman,serif" font-size="14.00">giocatoreCorrente</text>
<text text-anchor="middle" x="419.53" y="-845.8" font-family="Times New Roman,serif" font-size="14.00">[0..1]</text>
</g>
</g>
</svg>
