<?xml version="1.0" encoding="UTF-8" standalone="no"?>
<!DOCTYPE svg PUBLIC "-//W3C//DTD SVG 1.1//EN"
 "http://www.w3.org/Graphics/SVG/1.1/DTD/svg11.dtd">
<!-- Generated by graphviz version 2.44.1 (20200629.0846)
 -->
<!-- Title: g Pages: 1 -->
<svg width="1782pt" height="1370pt"
 viewBox="0.00 0.00 1782.00 1370.00" xmlns="http://www.w3.org/2000/svg" xmlns:xlink="http://www.w3.org/1999/xlink">
<g id="graph0" class="graph" transform="scale(1 1) rotate(0) translate(4 1366)">
<title>g</title>
<polygon fill="white" stroke="transparent" points="-4,4 -4,-1366 1778,-1366 1778,4 -4,4"/>
<g id="clust1" class="cluster">
<title>cluster_3371</title>
<polygon fill="#ececec" stroke="black" points="8,-8 8,-1354 1766,-1354 1766,-8 8,-8"/>
<text text-anchor="middle" x="19.89" y="-1337.4" font-family="Times New Roman,serif" font-size="14.00">it</text>
</g>
<g id="clust2" class="cluster">
<title>cluster_401995146</title>
<polygon fill="#d8d8d8" stroke="black" points="16,-16 16,-1321.2 1758,-1321.2 1758,-16 16,-16"/>
<text text-anchor="middle" x="39.55" y="-1304.6" font-family="Times New Roman,serif" font-size="14.00">gioco</text>
</g>
<g id="clust3" class="cluster">
<title>cluster_1720342979</title>
<polygon fill="#c4c4c4" stroke="black" points="24,-671.2 24,-1288.4 258,-1288.4 258,-671.2 24,-671.2"/>
<text text-anchor="middle" x="40.95" y="-1271.8" font-family="Times New Roman,serif" font-size="14.00">gui</text>
</g>
<g id="clust4" class="cluster">
<title>cluster_1791400870</title>
<polygon fill="#c4c4c4" stroke="black" points="228,-60 228,-570.4 760,-570.4 760,-60 228,-60"/>
<text text-anchor="middle" x="245.34" y="-553.8" font-family="Times New Roman,serif" font-size="14.00">tipi</text>
</g>
<g id="clust6" class="cluster">
<title>cluster_867481961</title>
<polygon fill="#c4c4c4" stroke="black" points="768,-450.6 768,-527.4 848,-527.4 848,-450.6 768,-450.6"/>
<text text-anchor="middle" x="793.1" y="-510.8" font-family="Times New Roman,serif" font-size="14.00">parser</text>
</g>
<g id="clust5" class="cluster">
<title>cluster_299903175</title>
<polygon fill="#c4c4c4" stroke="black" points="856,-24 856,-858 1654,-858 1654,-24 856,-24"/>
<text text-anchor="middle" x="876.06" y="-841.4" font-family="Times New Roman,serif" font-size="14.00">utils</text>
</g>
<!-- GameModel96662443 -->
<g id="node1" class="node">
<title>GameModel96662443</title>
<polygon fill="#ffffff" stroke="transparent" points="220,-525.6 44,-525.6 44,-427.6 220,-427.6 220,-525.6"/>
<text text-anchor="start" x="49" y="-508" font-family="Times New Roman,serif" font-size="14.00">(C)GameModel</text>
<text text-anchor="start" x="49" y="-484" font-family="Times New Roman,serif" font-size="14.00">&#45; &#160;&#160;giocatore: Giocatore [0..1]</text>
<text text-anchor="start" x="49" y="-460" font-family="Times New Roman,serif" font-size="14.00">&#45; &#160;&#160;init: Init [0..1]</text>
<text text-anchor="start" x="48.88" y="-436" font-family="Times New Roman,serif" font-size="14.00">&#45; &#160;&#160;stanze: List&lt;Stanza&gt; [0..*]</text>
<polygon fill="black" stroke="black" points="44,-500.6 44,-500.6 220,-500.6 220,-500.6 44,-500.6"/>
<polygon fill="none" stroke="black" points="44,-427.6 44,-525.6 220,-525.6 220,-427.6 44,-427.6"/>
</g>
<!-- JFrameMain1100698658 -->
<g id="node2" class="node">
<title>JFrameMain1100698658</title>
<polygon fill="#ffffff" stroke="transparent" points="235.5,-825.2 32.5,-825.2 32.5,-679.2 235.5,-679.2 235.5,-825.2"/>
<text text-anchor="start" x="38" y="-807.6" font-family="Times New Roman,serif" font-size="14.00">(C)JFrameMain</text>
<text text-anchor="start" x="38" y="-783.6" font-family="Times New Roman,serif" font-size="14.00">&#45; &#160;&#160;cardLayout: CardLayout [0..1]</text>
<text text-anchor="start" x="38" y="-759.6" font-family="Times New Roman,serif" font-size="14.00">&#45; &#160;&#160;cardsPanel: JPanel [0..1]</text>
<text text-anchor="start" x="37.89" y="-735.6" font-family="Times New Roman,serif" font-size="14.00">&#45; &#160;&#160;gameModel: GameModel [0..1]</text>
<text text-anchor="start" x="38" y="-711.6" font-family="Times New Roman,serif" font-size="14.00">&#45; &#160;&#160;jButton1: JButton [0..1]</text>
<text text-anchor="start" x="38" y="-687.6" font-family="Times New Roman,serif" font-size="14.00">&#45; &#160;&#160;jButton2: JButton [0..1]</text>
<polygon fill="black" stroke="black" points="33,-800.2 33,-800.2 236,-800.2 236,-800.2 33,-800.2"/>
<polygon fill="none" stroke="black" points="32.5,-679.2 32.5,-825.2 235.5,-825.2 235.5,-679.2 32.5,-679.2"/>
</g>
<!-- JFrameMain1100698658&#45;&gt;GameModel96662443 -->
<g id="edge8" class="edge">
<title>JFrameMain1100698658&#45;&gt;GameModel96662443</title>
<path fill="none" stroke="black" d="M133.47,-678.96C133.14,-634.2 132.73,-577.48 132.42,-535.66"/>
<polygon fill="black" stroke="black" points="135.92,-535.6 132.35,-525.63 128.92,-535.66 135.92,-535.6"/>
<text text-anchor="middle" x="166.43" y="-648.6" font-family="Times New Roman,serif" font-size="14.00">gameModel</text>
<text text-anchor="middle" x="166.43" y="-631.8" font-family="Times New Roman,serif" font-size="14.00">[0..1]</text>
</g>
<!-- JPanelPartita1100698658 -->
<g id="node3" class="node">
<title>JPanelPartita1100698658</title>
<polygon fill="#ffffff" stroke="transparent" points="249.5,-1255.6 32.5,-1255.6 32.5,-917.6 249.5,-917.6 249.5,-1255.6"/>
<text text-anchor="start" x="38" y="-1238" font-family="Times New Roman,serif" font-size="14.00">(C)JPanelPartita</text>
<text text-anchor="start" x="38" y="-1214" font-family="Times New Roman,serif" font-size="14.00">&#45; &#160;&#160;gameModel: GameModel [0..1]</text>
<text text-anchor="start" x="38" y="-1190" font-family="Times New Roman,serif" font-size="14.00">&#45; &#160;&#160;gestoreInput: Input [0..1]</text>
<text text-anchor="start" x="38" y="-1166" font-family="Times New Roman,serif" font-size="14.00">&#45; &#160;&#160;giocatore: Giocatore [0..1]</text>
<text text-anchor="start" x="38" y="-1142" font-family="Times New Roman,serif" font-size="14.00">&#45; &#160;&#160;init: Init [0..1]</text>
<text text-anchor="start" x="38" y="-1118" font-family="Times New Roman,serif" font-size="14.00">+ &#160;&#160;jAreaTesto: JTextArea [0..1]</text>
<text text-anchor="start" x="38" y="-1094" font-family="Times New Roman,serif" font-size="14.00">&#45; &#160;&#160;jCancellaButton1: JButton [0..1]</text>
<text text-anchor="start" x="37.89" y="-1070" font-family="Times New Roman,serif" font-size="14.00">&#45; &#160;&#160;jContainerImmagini: JLabel [0..1]</text>
<text text-anchor="start" x="38" y="-1046" font-family="Times New Roman,serif" font-size="14.00">&#45; &#160;&#160;jIndietroButton: JButton [0..1]</text>
<text text-anchor="start" x="37.5" y="-1022" font-family="Times New Roman,serif" font-size="14.00">&#45; &#160;&#160;jInputTestoArea: JTextField [0..1]</text>
<text text-anchor="start" x="38" y="-998" font-family="Times New Roman,serif" font-size="14.00">&#45; &#160;&#160;jInvioButtone: JButton [0..1]</text>
<text text-anchor="start" x="38" y="-974" font-family="Times New Roman,serif" font-size="14.00">&#45; &#160;&#160;jScrollPane1: JScrollPane [0..1]</text>
<text text-anchor="start" x="38" y="-950" font-family="Times New Roman,serif" font-size="14.00">&#45; &#160;&#160;jframeMain: JFrameMain [0..1]</text>
<text text-anchor="start" x="38" y="-926" font-family="Times New Roman,serif" font-size="14.00">&#45; &#160;&#160;stanze: List&lt;Stanza&gt; [0..*]</text>
<polygon fill="black" stroke="black" points="33,-1230.6 33,-1230.6 250,-1230.6 250,-1230.6 33,-1230.6"/>
<polygon fill="none" stroke="black" points="32.5,-917.6 32.5,-1255.6 249.5,-1255.6 249.5,-917.6 32.5,-917.6"/>
</g>
<!-- JPanelPartita1100698658&#45;&gt;GameModel96662443 -->
<g id="edge9" class="edge">
<title>JPanelPartita1100698658&#45;&gt;GameModel96662443</title>
<path fill="none" stroke="black" d="M248.59,-917.43C255.64,-906.41 260,-899.6 260,-899.6 260,-899.6 260,-671.2 260,-671.2 260,-671.2 207.42,-591.67 169.66,-534.56"/>
<polygon fill="black" stroke="black" points="172.4,-532.37 163.97,-525.95 166.57,-536.23 172.4,-532.37"/>
<text text-anchor="middle" x="293.43" y="-756.4" font-family="Times New Roman,serif" font-size="14.00">gameModel</text>
<text text-anchor="middle" x="293.43" y="-739.6" font-family="Times New Roman,serif" font-size="14.00">[0..1]</text>
</g>
<!-- JPanelPartita1100698658&#45;&gt;JFrameMain1100698658 -->
<g id="edge13" class="edge">
<title>JPanelPartita1100698658&#45;&gt;JFrameMain1100698658</title>
<path fill="none" stroke="black" d="M137.46,-917.45C136.86,-889.01 136.26,-860.63 135.74,-835.67"/>
<polygon fill="black" stroke="black" points="139.23,-835.48 135.52,-825.56 132.24,-835.63 139.23,-835.48"/>
<text text-anchor="middle" x="170.04" y="-887" font-family="Times New Roman,serif" font-size="14.00">jframeMain</text>
<text text-anchor="middle" x="170.04" y="-870.2" font-family="Times New Roman,serif" font-size="14.00">[0..1]</text>
</g>
<!-- Giocatore237703897 -->
<g id="node5" class="node">
<title>Giocatore237703897</title>
<polygon fill="#ffffff" stroke="transparent" points="488.5,-537.6 301.5,-537.6 301.5,-415.6 488.5,-415.6 488.5,-537.6"/>
<text text-anchor="start" x="307" y="-520" font-family="Times New Roman,serif" font-size="14.00">(C)Giocatore</text>
<text text-anchor="start" x="307" y="-496" font-family="Times New Roman,serif" font-size="14.00">&#45; &#160;&#160;idUtente: int [1]</text>
<text text-anchor="start" x="307" y="-472" font-family="Times New Roman,serif" font-size="14.00">&#45; &#160;&#160;inventario: Inventario [0..1]</text>
<text text-anchor="start" x="307" y="-448" font-family="Times New Roman,serif" font-size="14.00">&#45; &#160;&#160;nickname: String [0..1]</text>
<text text-anchor="start" x="306.68" y="-424" font-family="Times New Roman,serif" font-size="14.00">&#45; &#160;&#160;stanzaCorrente: Stanza [0..1]</text>
<polygon fill="black" stroke="black" points="302,-512.6 302,-512.6 489,-512.6 489,-512.6 302,-512.6"/>
<polygon fill="none" stroke="black" points="301.5,-415.6 301.5,-537.6 488.5,-537.6 488.5,-415.6 301.5,-415.6"/>
</g>
<!-- JPanelPartita1100698658&#45;&gt;Giocatore237703897 -->
<g id="edge10" class="edge">
<title>JPanelPartita1100698658&#45;&gt;Giocatore237703897</title>
<path fill="none" stroke="black" d="M249.85,-1004.29C316.85,-954.24 390,-899.6 390,-899.6 390,-899.6 392.75,-667.83 394.17,-547.81"/>
<polygon fill="black" stroke="black" points="397.67,-547.65 394.29,-537.61 390.67,-547.57 397.67,-547.65"/>
<text text-anchor="middle" x="418.04" y="-756.4" font-family="Times New Roman,serif" font-size="14.00">giocatore</text>
<text text-anchor="middle" x="418.04" y="-739.6" font-family="Times New Roman,serif" font-size="14.00">[0..1]</text>
</g>
<!-- Stanza237703897 -->
<g id="node7" class="node">
<title>Stanza237703897</title>
<polygon fill="#ffffff" stroke="transparent" points="549.5,-238 236.5,-238 236.5,-68 549.5,-68 549.5,-238"/>
<text text-anchor="start" x="242" y="-220.4" font-family="Times New Roman,serif" font-size="14.00">(C)Stanza</text>
<text text-anchor="start" x="242" y="-196.4" font-family="Times New Roman,serif" font-size="14.00">&#45; &#160;&#160;aperto: boolean [1]</text>
<text text-anchor="start" x="241.96" y="-172.4" font-family="Times New Roman,serif" font-size="14.00">&#45; &#160;&#160;connessioneStanze: Map&lt;Direzione, Stanza&gt; [0..*]</text>
<text text-anchor="start" x="242" y="-148.4" font-family="Times New Roman,serif" font-size="14.00">&#45; &#160;&#160;descrizione: String [0..1]</text>
<text text-anchor="start" x="242" y="-124.4" font-family="Times New Roman,serif" font-size="14.00">&#45; &#160;&#160;nome: String [0..1]</text>
<text text-anchor="start" x="242" y="-100.4" font-family="Times New Roman,serif" font-size="14.00">&#45; &#160;&#160;npc: Npc [0..1]</text>
<text text-anchor="start" x="242" y="-76.4" font-family="Times New Roman,serif" font-size="14.00">&#45; &#160;&#160;oggettiPresentiStanza: Set&lt;Oggetto&gt; [0..*]</text>
<polygon fill="black" stroke="black" points="237,-213 237,-213 550,-213 550,-213 237,-213"/>
<polygon fill="none" stroke="black" points="236.5,-68 236.5,-238 549.5,-238 549.5,-68 236.5,-68"/>
</g>
<!-- JPanelPartita1100698658&#45;&gt;Stanza237703897 -->
<g id="edge14" class="edge">
<title>JPanelPartita1100698658&#45;&gt;Stanza237703897</title>
<path fill="none" stroke="black" d="M217.81,-917.5C233.33,-883.54 245,-858 245,-858 245,-858 245,-671.2 245,-671.2 245,-671.2 34.02,-661.2 34.02,-661.2 34.02,-661.2 30,-609.6 30,-609.6 30,-609.6 30,-343.6 30,-343.6 30,-343.6 131.73,-290.47 227.47,-240.46"/>
<polygon fill="black" stroke="black" points="229.18,-243.52 236.42,-235.78 225.94,-237.31 229.18,-243.52"/>
<text text-anchor="middle" x="52.49" y="-648.6" font-family="Times New Roman,serif" font-size="14.00">stanze</text>
<text text-anchor="middle" x="52.49" y="-631.8" font-family="Times New Roman,serif" font-size="14.00">[0..*]</text>
</g>
<!-- Init1222358488 -->
<g id="node8" class="node">
<title>Init1222358488</title>
<polygon fill="#ffffff" stroke="transparent" points="1386,-801.2 1122,-801.2 1122,-703.2 1386,-703.2 1386,-801.2"/>
<text text-anchor="start" x="1127" y="-783.6" font-family="Times New Roman,serif" font-size="14.00">(C)Init</text>
<text text-anchor="start" x="1126.93" y="-759.6" font-family="Times New Roman,serif" font-size="14.00">&#45; &#160;&#160;commands: Map&lt;String, Comando&gt; [0..*]</text>
<text text-anchor="start" x="1127" y="-735.6" font-family="Times New Roman,serif" font-size="14.00">&#45; &#160;&#160;objectMapper: ObjectMapper [0..1]</text>
<text text-anchor="start" x="1127" y="-711.6" font-family="Times New Roman,serif" font-size="14.00">&#45; &#160;&#160;stopWords: Set&lt;String&gt; [0..*]</text>
<polygon fill="black" stroke="black" points="1122,-776.2 1122,-776.2 1386,-776.2 1386,-776.2 1122,-776.2"/>
<polygon fill="none" stroke="black" points="1122,-703.2 1122,-801.2 1386,-801.2 1386,-703.2 1122,-703.2"/>
</g>
<!-- JPanelPartita1100698658&#45;&gt;Init1222358488 -->
<g id="edge11" class="edge">
<title>JPanelPartita1100698658&#45;&gt;Init1222358488</title>
<path fill="none" stroke="black" d="M249.67,-1060.15C503.31,-1000.76 1113,-858 1113,-858 1113,-858 1146.61,-833.02 1181.01,-807.45"/>
<polygon fill="black" stroke="black" points="1183.34,-810.08 1189.28,-801.31 1179.16,-804.46 1183.34,-810.08"/>
<text text-anchor="middle" x="1089.16" y="-887" font-family="Times New Roman,serif" font-size="14.00">init</text>
<text text-anchor="middle" x="1089.16" y="-870.2" font-family="Times New Roman,serif" font-size="14.00">[0..1]</text>
</g>
<!-- Input1222358488 -->
<g id="node9" class="node">
<title>Input1222358488</title>
<polygon fill="#ffffff" stroke="transparent" points="1646,-813.2 1404,-813.2 1404,-691.2 1646,-691.2 1646,-813.2"/>
<text text-anchor="start" x="1409" y="-795.6" font-family="Times New Roman,serif" font-size="14.00">(C)Input</text>
<text text-anchor="start" x="1409" y="-771.6" font-family="Times New Roman,serif" font-size="14.00">&#45; &#160;&#160;gameModel: GameModel [0..1]</text>
<text text-anchor="start" x="1409" y="-747.6" font-family="Times New Roman,serif" font-size="14.00">&#45; &#160;&#160;input: Input [0..1]</text>
<text text-anchor="start" x="1408.94" y="-723.6" font-family="Times New Roman,serif" font-size="14.00">&#45; &#160;&#160;logicaComandi: LogicaComandi [0..1]</text>
<text text-anchor="start" x="1409" y="-699.6" font-family="Times New Roman,serif" font-size="14.00">&#45; &#160;&#160;logicaDialoghi: LogicaDialoghi [0..1]</text>
<polygon fill="black" stroke="black" points="1404,-788.2 1404,-788.2 1646,-788.2 1646,-788.2 1404,-788.2"/>
<polygon fill="none" stroke="black" points="1404,-691.2 1404,-813.2 1646,-813.2 1646,-691.2 1404,-691.2"/>
</g>
<!-- JPanelPartita1100698658&#45;&gt;Input1222358488 -->
<g id="edge12" class="edge">
<title>JPanelPartita1100698658&#45;&gt;Input1222358488</title>
<path fill="none" stroke="black" d="M249.55,-1065.9C554.18,-1010.61 1395,-858 1395,-858 1395,-858 1416.73,-840.48 1442.43,-819.77"/>
<polygon fill="black" stroke="black" points="1444.92,-822.25 1450.51,-813.25 1440.53,-816.8 1444.92,-822.25"/>
<text text-anchor="middle" x="1379.99" y="-887" font-family="Times New Roman,serif" font-size="14.00">gestoreInput</text>
<text text-anchor="middle" x="1379.99" y="-870.2" font-family="Times New Roman,serif" font-size="14.00">[0..1]</text>
</g>
<!-- Comando237703897 -->
<g id="node4" class="node">
<title>Comando237703897</title>
<polygon fill="#ffffff" stroke="transparent" points="751.5,-525.6 576.5,-525.6 576.5,-427.6 751.5,-427.6 751.5,-525.6"/>
<text text-anchor="start" x="582" y="-508" font-family="Times New Roman,serif" font-size="14.00">(C)Comando</text>
<text text-anchor="start" x="581.76" y="-484" font-family="Times New Roman,serif" font-size="14.00">&#45; &#160;&#160;aliases: List&lt;String&gt; [0..*]</text>
<text text-anchor="start" x="582" y="-460" font-family="Times New Roman,serif" font-size="14.00">&#45; &#160;&#160;name: String [0..1]</text>
<text text-anchor="start" x="582" y="-436" font-family="Times New Roman,serif" font-size="14.00">&#45; &#160;&#160;type: TipoComando [0..1]</text>
<polygon fill="black" stroke="black" points="577,-500.6 577,-500.6 752,-500.6 752,-500.6 577,-500.6"/>
<polygon fill="none" stroke="black" points="576.5,-427.6 576.5,-525.6 751.5,-525.6 751.5,-427.6 576.5,-427.6"/>
</g>
<!-- Inventario237703897 -->
<g id="node6" class="node">
<title>Inventario237703897</title>
<polygon fill="#ffffff" stroke="transparent" points="752,-178 568,-178 568,-128 752,-128 752,-178"/>
<text text-anchor="start" x="573" y="-160.4" font-family="Times New Roman,serif" font-size="14.00">(C)Inventario</text>
<text text-anchor="start" x="572.98" y="-136.4" font-family="Times New Roman,serif" font-size="14.00">&#45; &#160;&#160;oggetti: Set&lt;Oggetto&gt; [0..*]</text>
<polygon fill="black" stroke="black" points="568,-153 568,-153 752,-153 752,-153 568,-153"/>
<polygon fill="none" stroke="black" points="568,-128 568,-178 752,-178 752,-128 568,-128"/>
</g>
<!-- Giocatore237703897&#45;&gt;Inventario237703897 -->
<g id="edge1" class="edge">
<title>Giocatore237703897&#45;&gt;Inventario237703897</title>
<path fill="none" stroke="black" d="M444.53,-415.49C500.53,-347.53 589.62,-239.42 633.62,-186.01"/>
<polygon fill="black" stroke="black" points="636.38,-188.17 640.03,-178.23 630.97,-183.72 636.38,-188.17"/>
<text text-anchor="middle" x="571.38" y="-313" font-family="Times New Roman,serif" font-size="14.00">inventario</text>
<text text-anchor="middle" x="571.38" y="-296.2" font-family="Times New Roman,serif" font-size="14.00">[0..1]</text>
</g>
<!-- Giocatore237703897&#45;&gt;Stanza237703897 -->
<g id="edge2" class="edge">
<title>Giocatore237703897&#45;&gt;Stanza237703897</title>
<path fill="none" stroke="black" d="M394.63,-415.49C394.33,-368.52 393.92,-302.37 393.59,-248.36"/>
<polygon fill="black" stroke="black" points="397.09,-248.06 393.52,-238.08 390.09,-248.1 397.09,-248.06"/>
<text text-anchor="middle" x="435.98" y="-313" font-family="Times New Roman,serif" font-size="14.00">stanzaCorrente</text>
<text text-anchor="middle" x="435.98" y="-296.2" font-family="Times New Roman,serif" font-size="14.00">[0..1]</text>
</g>
<!-- Init1222358488&#45;&gt;Comando237703897 -->
<g id="edge3" class="edge">
<title>Init1222358488&#45;&gt;Comando237703897</title>
<path fill="none" stroke="black" d="M1169.13,-703.05C1139.27,-686.11 1113,-671.2 1113,-671.2 1113,-671.2 896.35,-661.2 896.35,-661.2 896.35,-661.2 764,-609.6 764,-609.6 764,-609.6 733.73,-569.64 706.5,-533.7"/>
<polygon fill="black" stroke="black" points="709.21,-531.49 700.39,-525.63 703.63,-535.71 709.21,-531.49"/>
<text text-anchor="middle" x="926.33" y="-648.6" font-family="Times New Roman,serif" font-size="14.00">commands</text>
<text text-anchor="middle" x="926.33" y="-631.8" font-family="Times New Roman,serif" font-size="14.00">[0..*]</text>
</g>
<!-- Input1222358488&#45;&gt;GameModel96662443 -->
<g id="edge4" class="edge">
<title>Input1222358488&#45;&gt;GameModel96662443</title>
<path fill="none" stroke="black" d="M1427.47,-691.18C1408.83,-679.71 1395,-671.2 1395,-671.2 1395,-671.2 739.13,-661.2 739.13,-661.2 739.13,-661.2 224,-609.6 224,-609.6 224,-609.6 196.38,-569.98 171.41,-534.15"/>
<polygon fill="black" stroke="black" points="174.06,-531.83 165.47,-525.63 168.32,-535.83 174.06,-531.83"/>
<text text-anchor="middle" x="772.43" y="-648.6" font-family="Times New Roman,serif" font-size="14.00">gameModel</text>
<text text-anchor="middle" x="772.43" y="-631.8" font-family="Times New Roman,serif" font-size="14.00">[0..1]</text>
</g>
<!-- LogicaComandi1222358488 -->
<g id="node10" class="node">
<title>LogicaComandi1222358488</title>
<polygon fill="#ffffff" stroke="transparent" points="1645.5,-609.6 1408.5,-609.6 1408.5,-343.6 1645.5,-343.6 1645.5,-609.6"/>
<text text-anchor="start" x="1414" y="-592" font-family="Times New Roman,serif" font-size="14.00">(C)LogicaComandi</text>
<text text-anchor="start" x="1414" y="-568" font-family="Times New Roman,serif" font-size="14.00">&#45; &#160;&#160;gameModel: GameModel [0..1]</text>
<text text-anchor="start" x="1414" y="-544" font-family="Times New Roman,serif" font-size="14.00">&#45; &#160;&#160;giocatore: Giocatore [0..1]</text>
<text text-anchor="start" x="1414" y="-520" font-family="Times New Roman,serif" font-size="14.00">&#45; &#160;&#160;init: Init [0..1]</text>
<text text-anchor="start" x="1414" y="-496" font-family="Times New Roman,serif" font-size="14.00">&#45; &#160;&#160;input: Input [0..1]</text>
<text text-anchor="start" x="1414" y="-472" font-family="Times New Roman,serif" font-size="14.00">&#45; &#160;&#160;jInputTestoArea: JTextField [0..1]</text>
<text text-anchor="start" x="1414" y="-448" font-family="Times New Roman,serif" font-size="14.00">&#45; &#160;&#160;jOutputTestoArea: JTextArea [0..1]</text>
<text text-anchor="start" x="1414" y="-424" font-family="Times New Roman,serif" font-size="14.00">&#45; &#160;&#160;jPanelParita: JPanelPartita [0..1]</text>
<text text-anchor="start" x="1413.78" y="-400" font-family="Times New Roman,serif" font-size="14.00">&#45; &#160;&#160;logicaDialoghi: LogicaDialoghi [0..1]</text>
<text text-anchor="start" x="1414" y="-376" font-family="Times New Roman,serif" font-size="14.00">&#45; &#160;&#160;output: Output [0..1]</text>
<text text-anchor="start" x="1414" y="-352" font-family="Times New Roman,serif" font-size="14.00">&#45; &#160;&#160;stanze: List&lt;Stanza&gt; [0..*]</text>
<polygon fill="black" stroke="black" points="1409,-584.6 1409,-584.6 1646,-584.6 1646,-584.6 1409,-584.6"/>
<polygon fill="none" stroke="black" points="1408.5,-343.6 1408.5,-609.6 1645.5,-609.6 1645.5,-343.6 1408.5,-343.6"/>
</g>
<!-- Input1222358488&#45;&gt;LogicaComandi1222358488 -->
<g id="edge5" class="edge">
<title>Input1222358488&#45;&gt;LogicaComandi1222358488</title>
<path fill="none" stroke="black" d="M1525.44,-691.16C1525.59,-669.91 1525.78,-645.01 1525.96,-619.87"/>
<polygon fill="black" stroke="black" points="1529.46,-619.87 1526.03,-609.85 1522.46,-619.82 1529.46,-619.87"/>
<text text-anchor="middle" x="1567.77" y="-648.6" font-family="Times New Roman,serif" font-size="14.00">logicaComandi</text>
<text text-anchor="middle" x="1567.77" y="-631.8" font-family="Times New Roman,serif" font-size="14.00">[0..1]</text>
</g>
<!-- LogicaDialoghi1222358488 -->
<g id="node11" class="node">
<title>LogicaDialoghi1222358488</title>
<polygon fill="#ffffff" stroke="transparent" points="1540.5,-274 1295.5,-274 1295.5,-32 1540.5,-32 1540.5,-274"/>
<text text-anchor="start" x="1301" y="-256.4" font-family="Times New Roman,serif" font-size="14.00">(C)LogicaDialoghi</text>
<text text-anchor="start" x="1300.91" y="-232.4" font-family="Times New Roman,serif" font-size="14.00">&#45; &#160;&#160;actionListeners: ActionListener[] [0..*]</text>
<text text-anchor="start" x="1301" y="-208.4" font-family="Times New Roman,serif" font-size="14.00">&#45; &#160;&#160;giocatore: Giocatore [0..1]</text>
<text text-anchor="start" x="1301" y="-184.4" font-family="Times New Roman,serif" font-size="14.00">&#45; &#160;&#160;inputListener: ActionListener [0..1]</text>
<text text-anchor="start" x="1301" y="-160.4" font-family="Times New Roman,serif" font-size="14.00">&#45; &#160;&#160;jBottoneInvio: JButton [0..1]</text>
<text text-anchor="start" x="1301" y="-136.4" font-family="Times New Roman,serif" font-size="14.00">&#45; &#160;&#160;jInputTestoArea: JTextField [0..1]</text>
<text text-anchor="start" x="1301" y="-112.4" font-family="Times New Roman,serif" font-size="14.00">&#45; &#160;&#160;jOutputTestoArea: JTextArea [0..1]</text>
<text text-anchor="start" x="1301" y="-88.4" font-family="Times New Roman,serif" font-size="14.00">&#45; &#160;&#160;keyListeners: KeyListener[] [0..*]</text>
<text text-anchor="start" x="1301" y="-64.4" font-family="Times New Roman,serif" font-size="14.00">&#45; &#160;&#160;logicaComandi: LogicaComandi [0..1]</text>
<text text-anchor="start" x="1301" y="-40.4" font-family="Times New Roman,serif" font-size="14.00">&#45; &#160;&#160;stanze: List&lt;Stanza&gt; [0..*]</text>
<polygon fill="black" stroke="black" points="1296,-249 1296,-249 1541,-249 1541,-249 1296,-249"/>
<polygon fill="none" stroke="black" points="1295.5,-32 1295.5,-274 1540.5,-274 1540.5,-32 1295.5,-32"/>
</g>
<!-- Input1222358488&#45;&gt;LogicaDialoghi1222358488 -->
<g id="edge6" class="edge">
<title>Input1222358488&#45;&gt;LogicaDialoghi1222358488</title>
<path fill="none" stroke="black" d="M1436.7,-691.15C1379.96,-652.56 1316.8,-609.6 1316.8,-609.6 1316.8,-609.6 1316.8,-343.6 1316.8,-343.6 1316.8,-343.6 1331.14,-316.72 1349.03,-283.21"/>
<polygon fill="black" stroke="black" points="1352.29,-284.55 1353.91,-274.08 1346.11,-281.25 1352.29,-284.55"/>
<text text-anchor="middle" x="1357.6" y="-480.8" font-family="Times New Roman,serif" font-size="14.00">logicaDialoghi</text>
<text text-anchor="middle" x="1357.6" y="-464" font-family="Times New Roman,serif" font-size="14.00">[0..1]</text>
</g>
<!-- Parser922010664 -->
<g id="node13" class="node">
<title>Parser922010664</title>
<polygon fill="#ffffff" stroke="transparent" points="839.5,-494.6 776.5,-494.6 776.5,-458.6 839.5,-458.6 839.5,-494.6"/>
<text text-anchor="start" x="781.68" y="-472" font-family="Times New Roman,serif" font-size="14.00">(C)Parser</text>
<polygon fill="none" stroke="black" points="776.5,-463.6 776.5,-489.6 839.5,-489.6 839.5,-463.6 776.5,-463.6"/>
</g>
<!-- Input1222358488&#45;&gt;Parser922010664 -->
<g id="edge7" class="edge">
<title>Input1222358488&#45;&gt;Parser922010664</title>
<path fill="none" stroke="black" d="M1427.47,-691.18C1408.83,-679.71 1395,-671.2 1395,-671.2 1395,-671.2 1151.83,-661.2 1151.83,-661.2 1151.83,-661.2 957,-627.6 957,-627.6 957,-627.6 852,-609.6 852,-609.6 852,-609.6 829.82,-543.06 816.96,-504.47"/>
<polygon fill="black" stroke="black" points="820.23,-503.24 813.75,-494.86 813.59,-505.45 820.23,-503.24"/>
<text text-anchor="middle" x="1226.08" y="-640.2" font-family="Times New Roman,serif" font-size="14.00">inviaComando() &#45;&gt; parse()</text>
</g>
<!-- LogicaComandi1222358488&#45;&gt;JPanelPartita1100698658 -->
<g id="edge15" class="edge">
<title>LogicaComandi1222358488&#45;&gt;JPanelPartita1100698658</title>
<path fill="none" stroke="black" d="M1614.32,-609.68C1636.91,-643.83 1655,-671.2 1655,-671.2 1655,-671.2 1655,-858 1655,-858 1655,-858 1419,-899.6 1419,-899.6 1419,-899.6 576.89,-1022.16 259.83,-1068.31"/>
<polygon fill="black" stroke="black" points="259.08,-1064.88 249.69,-1069.78 260.09,-1071.81 259.08,-1064.88"/>
<text text-anchor="middle" x="1688.82" y="-756.4" font-family="Times New Roman,serif" font-size="14.00">jPanelParita</text>
<text text-anchor="middle" x="1688.82" y="-739.6" font-family="Times New Roman,serif" font-size="14.00">[0..1]</text>
</g>
<!-- LogicaComandi1222358488&#45;&gt;LogicaDialoghi1222358488 -->
<g id="edge16" class="edge">
<title>LogicaComandi1222358488&#45;&gt;LogicaDialoghi1222358488</title>
<path fill="none" stroke="black" d="M1511.13,-343.14C1507.66,-314.19 1505,-292 1505,-292 1505,-292 1502.83,-288.56 1499.18,-282.76"/>
<polygon fill="black" stroke="black" points="1502.1,-280.83 1493.8,-274.24 1496.18,-284.57 1502.1,-280.83"/>
<text text-anchor="middle" x="1549.6" y="-313" font-family="Times New Roman,serif" font-size="14.00">logicaDialoghi</text>
<text text-anchor="middle" x="1549.6" y="-296.2" font-family="Times New Roman,serif" font-size="14.00">[0..1]</text>
</g>
<!-- LogicaDialoghi1222358488&#45;&gt;LogicaComandi1222358488 -->
<g id="edge17" class="edge">
<title>LogicaDialoghi1222358488&#45;&gt;LogicaComandi1222358488</title>
<path fill="none" stroke="black" d="M1415.78,-274.24C1415.59,-285.04 1415.46,-292 1415.46,-292 1415.46,-292 1415.46,-325.6 1415.46,-325.6 1415.46,-325.6 1418.12,-329.18 1422.62,-335.23"/>
<polygon fill="black" stroke="black" points="1419.91,-337.46 1428.69,-343.4 1425.53,-333.28 1419.91,-337.46"/>
<text text-anchor="middle" x="1457.77" y="-313" font-family="Times New Roman,serif" font-size="14.00">logicaComandi</text>
<text text-anchor="middle" x="1457.77" y="-296.2" font-family="Times New Roman,serif" font-size="14.00">[0..1]</text>
</g>
<!-- Output1222358488 -->
<g id="node12" class="node">
<title>Output1222358488</title>
<polygon fill="#ffffff" stroke="transparent" points="1104,-825.2 864,-825.2 864,-679.2 1104,-679.2 1104,-825.2"/>
<text text-anchor="start" x="869" y="-807.6" font-family="Times New Roman,serif" font-size="14.00">(C)Output</text>
<text text-anchor="start" x="869" y="-783.6" font-family="Times New Roman,serif" font-size="14.00">&#45; &#160;&#160;containerImmagini: JLabel [0..1]</text>
<text text-anchor="start" x="869" y="-759.6" font-family="Times New Roman,serif" font-size="14.00">&#45; &#160;&#160;giocatoreCorrente: Giocatore [0..1]</text>
<text text-anchor="start" x="869" y="-735.6" font-family="Times New Roman,serif" font-size="14.00">&#45; &#160;&#160;stanzaCambiata: boolean [1]</text>
<text text-anchor="start" x="868.99" y="-711.6" font-family="Times New Roman,serif" font-size="14.00">&#45; &#160;&#160;storiaMap: Map&lt;String, String&gt; [0..*]</text>
<text text-anchor="start" x="869" y="-687.6" font-family="Times New Roman,serif" font-size="14.00">&#45; &#160;&#160;storiaTextArea: JTextArea [0..1]</text>
<polygon fill="black" stroke="black" points="864,-800.2 864,-800.2 1104,-800.2 1104,-800.2 864,-800.2"/>
<polygon fill="none" stroke="black" points="864,-679.2 864,-825.2 1104,-825.2 1104,-679.2 864,-679.2"/>
</g>
</g>
</svg>
