<?xml version="1.0" encoding="UTF-8" standalone="no"?>
<!DOCTYPE svg PUBLIC "-//W3C//DTD SVG 1.1//EN"
 "http://www.w3.org/Graphics/SVG/1.1/DTD/svg11.dtd">
<!-- Generated by graphviz version 2.44.1 (20200629.0846)
 -->
<!-- Title: g Pages: 1 -->
<svg width="371pt" height="628pt"
 viewBox="0.00 0.00 371.20 627.60" xmlns="http://www.w3.org/2000/svg" xmlns:xlink="http://www.w3.org/1999/xlink">
<g id="graph0" class="graph" transform="scale(1 1) rotate(0) translate(4 623.6)">
<title>g</title>
<polygon fill="white" stroke="transparent" points="-4,4 -4,-623.6 367.2,-623.6 367.2,4 -4,4"/>
<g id="clust1" class="cluster">
<title>cluster_3371</title>
<polygon fill="#ececec" stroke="black" points="8,-8 8,-611.6 332,-611.6 332,-8 8,-8"/>
<text text-anchor="middle" x="19.89" y="-595" font-family="Times New Roman,serif" font-size="14.00">it</text>
</g>
<g id="clust2" class="cluster">
<title>cluster_401995146</title>
<polygon fill="#d8d8d8" stroke="black" points="16,-16 16,-578.8 324,-578.8 324,-16 16,-16"/>
<text text-anchor="middle" x="39.55" y="-562.2" font-family="Times New Roman,serif" font-size="14.00">gioco</text>
</g>
<g id="clust3" class="cluster">
<title>cluster_1791400870</title>
<polygon fill="#c4c4c4" stroke="black" points="24,-24 24,-206.4 222,-206.4 222,-24 24,-24"/>
<text text-anchor="middle" x="41.34" y="-189.8" font-family="Times New Roman,serif" font-size="14.00">tipi</text>
</g>
<g id="clust4" class="cluster">
<title>cluster_299903175</title>
<polygon fill="#c4c4c4" stroke="black" points="24,-258 24,-546 316,-546 316,-258 24,-258"/>
<text text-anchor="middle" x="44.06" y="-529.4" font-family="Times New Roman,serif" font-size="14.00">utils</text>
</g>
<!-- Giocatore237703897 -->
<g id="node1" class="node">
<title>Giocatore237703897</title>
<polygon fill="#ffffff" stroke="black" points="121.85,-173.6 32.15,-173.6 32.15,-137.6 121.85,-137.6 121.85,-173.6"/>
<text text-anchor="middle" x="77" y="-151.4" font-family="Times New Roman,serif" font-size="14.00">(C)Giocatore</text>
</g>
<!-- Inventario237703897 -->
<g id="node2" class="node">
<title>Inventario237703897</title>
<polygon fill="#ffffff" stroke="black" points="124.19,-68 31.81,-68 31.81,-32 124.19,-32 124.19,-68"/>
<text text-anchor="middle" x="78" y="-45.8" font-family="Times New Roman,serif" font-size="14.00">(C)Inventario</text>
</g>
<!-- Giocatore237703897&#45;&gt;Inventario237703897 -->
<g id="edge1" class="edge">
<title>Giocatore237703897&#45;&gt;Inventario237703897</title>
<path fill="none" stroke="black" d="M64.42,-137.51C57.88,-128.63 51.24,-119.6 51.24,-119.6 51.24,-119.6 51.24,-86 51.24,-86 51.24,-86 54.5,-81.73 58.75,-76.18"/>
<polygon fill="black" stroke="black" points="61.64,-78.16 64.93,-68.09 56.08,-73.91 61.64,-78.16"/>
<text text-anchor="middle" x="79.38" y="-107" font-family="Times New Roman,serif" font-size="14.00">inventario</text>
<text text-anchor="middle" x="79.38" y="-90.2" font-family="Times New Roman,serif" font-size="14.00">[0..1]</text>
</g>
<!-- Stanza237703897 -->
<g id="node3" class="node">
<title>Stanza237703897</title>
<polygon fill="#ffffff" stroke="black" points="213.97,-68 142.03,-68 142.03,-32 213.97,-32 213.97,-68"/>
<text text-anchor="middle" x="178" y="-45.8" font-family="Times New Roman,serif" font-size="14.00">(C)Stanza</text>
</g>
<!-- Giocatore237703897&#45;&gt;Stanza237703897 -->
<g id="edge2" class="edge">
<title>Giocatore237703897&#45;&gt;Stanza237703897</title>
<path fill="none" stroke="black" d="M93.68,-137.49C110.2,-120.55 135.66,-94.43 154.28,-75.33"/>
<polygon fill="black" stroke="black" points="156.82,-77.74 161.3,-68.13 151.81,-72.85 156.82,-77.74"/>
<text text-anchor="middle" x="183.98" y="-107" font-family="Times New Roman,serif" font-size="14.00">stanzaCorrente</text>
<text text-anchor="middle" x="183.98" y="-90.2" font-family="Times New Roman,serif" font-size="14.00">[0..1]</text>
</g>
<!-- Input1222358488 -->
<g id="node4" class="node">
<title>Input1222358488</title>
<polygon fill="#ffffff" stroke="black" points="215.21,-513.2 150.79,-513.2 150.79,-477.2 215.21,-477.2 215.21,-513.2"/>
<text text-anchor="middle" x="183" y="-491" font-family="Times New Roman,serif" font-size="14.00">(C)Input</text>
</g>
<!-- LogicaComandi1222358488 -->
<g id="node5" class="node">
<title>LogicaComandi1222358488</title>
<polygon fill="#ffffff" stroke="black" points="180.36,-407.6 55.64,-407.6 55.64,-371.6 180.36,-371.6 180.36,-407.6"/>
<text text-anchor="middle" x="118" y="-385.4" font-family="Times New Roman,serif" font-size="14.00">(C)LogicaComandi</text>
</g>
<!-- Input1222358488&#45;&gt;LogicaComandi1222358488 -->
<g id="edge3" class="edge">
<title>Input1222358488&#45;&gt;LogicaComandi1222358488</title>
<path fill="none" stroke="black" d="M159.3,-477.11C146.98,-468.23 134.46,-459.2 134.46,-459.2 134.46,-459.2 129.12,-436.95 124.52,-417.79"/>
<polygon fill="black" stroke="black" points="127.89,-416.82 122.15,-407.91 121.08,-418.45 127.89,-416.82"/>
<text text-anchor="middle" x="176.77" y="-446.6" font-family="Times New Roman,serif" font-size="14.00">logicaComandi</text>
<text text-anchor="middle" x="176.77" y="-429.8" font-family="Times New Roman,serif" font-size="14.00">[0..1]</text>
</g>
<!-- LogicaDialoghi1222358488 -->
<g id="node6" class="node">
<title>LogicaDialoghi1222358488</title>
<polygon fill="#ffffff" stroke="black" points="279.02,-302 156.98,-302 156.98,-266 279.02,-266 279.02,-302"/>
<text text-anchor="middle" x="218" y="-279.8" font-family="Times New Roman,serif" font-size="14.00">(C)LogicaDialoghi</text>
</g>
<!-- Input1222358488&#45;&gt;LogicaDialoghi1222358488 -->
<g id="edge4" class="edge">
<title>Input1222358488&#45;&gt;LogicaDialoghi1222358488</title>
<path fill="none" stroke="black" d="M201.07,-477.11C210.46,-468.23 220,-459.2 220,-459.2 220,-459.2 293,-353.6 293,-353.6 293,-353.6 293,-320 293,-320 293,-320 279.49,-313.69 263.93,-306.43"/>
<polygon fill="black" stroke="black" points="265.16,-303.15 254.62,-302.09 262.2,-309.49 265.16,-303.15"/>
<text text-anchor="middle" x="321.6" y="-393.8" font-family="Times New Roman,serif" font-size="14.00">logicaDialoghi</text>
<text text-anchor="middle" x="321.6" y="-377" font-family="Times New Roman,serif" font-size="14.00">[0..1]</text>
</g>
<!-- LogicaComandi1222358488&#45;&gt;LogicaDialoghi1222358488 -->
<g id="edge5" class="edge">
<title>LogicaComandi1222358488&#45;&gt;LogicaDialoghi1222358488</title>
<path fill="none" stroke="black" d="M156.09,-371.51C175.89,-362.63 196,-353.6 196,-353.6 196,-353.6 203.2,-331.14 209.36,-311.93"/>
<polygon fill="black" stroke="black" points="212.73,-312.9 212.45,-302.31 206.06,-310.76 212.73,-312.9"/>
<text text-anchor="middle" x="247.6" y="-341" font-family="Times New Roman,serif" font-size="14.00">logicaDialoghi</text>
<text text-anchor="middle" x="247.6" y="-324.2" font-family="Times New Roman,serif" font-size="14.00">[0..1]</text>
</g>
<!-- Output1222358488 -->
<g id="node7" class="node">
<title>Output1222358488</title>
<polygon fill="#ffffff" stroke="black" points="107.55,-302 34.45,-302 34.45,-266 107.55,-266 107.55,-302"/>
<text text-anchor="middle" x="71" y="-279.8" font-family="Times New Roman,serif" font-size="14.00">(C)Output</text>
</g>
<!-- LogicaComandi1222358488&#45;&gt;Output1222358488 -->
<g id="edge6" class="edge">
<title>LogicaComandi1222358488&#45;&gt;Output1222358488</title>
<path fill="none" stroke="black" d="M85.39,-371.51C68.44,-362.63 51.22,-353.6 51.22,-353.6 51.22,-353.6 51.22,-320 51.22,-320 51.22,-320 53.42,-316.11 56.35,-310.93"/>
<polygon fill="black" stroke="black" points="59.47,-312.52 61.34,-302.09 53.37,-309.07 59.47,-312.52"/>
<text text-anchor="middle" x="68.89" y="-341" font-family="Times New Roman,serif" font-size="14.00">output</text>
<text text-anchor="middle" x="68.89" y="-324.2" font-family="Times New Roman,serif" font-size="14.00">[0..1]</text>
</g>
<!-- LogicaDialoghi1222358488&#45;&gt;LogicaComandi1222358488 -->
<g id="edge7" class="edge">
<title>LogicaDialoghi1222358488&#45;&gt;LogicaComandi1222358488</title>
<path fill="none" stroke="black" d="M163.54,-302.09C135.22,-310.97 106.46,-320 106.46,-320 106.46,-320 106.46,-353.6 106.46,-353.6 106.46,-353.6 107.62,-357.13 109.21,-361.94"/>
<polygon fill="black" stroke="black" points="105.91,-363.11 112.36,-371.51 112.56,-360.92 105.91,-363.11"/>
<text text-anchor="middle" x="148.77" y="-341" font-family="Times New Roman,serif" font-size="14.00">logicaComandi</text>
<text text-anchor="middle" x="148.77" y="-324.2" font-family="Times New Roman,serif" font-size="14.00">[0..1]</text>
</g>
<!-- Output1222358488&#45;&gt;Giocatore237703897 -->
<g id="edge8" class="edge">
<title>Output1222358488&#45;&gt;Giocatore237703897</title>
<path fill="none" stroke="black" d="M71.81,-265.95C72.81,-244.94 74.51,-208.96 75.7,-184.03"/>
<polygon fill="black" stroke="black" points="79.21,-183.94 76.18,-173.78 72.21,-183.6 79.21,-183.94"/>
<text text-anchor="middle" x="124.53" y="-235.4" font-family="Times New Roman,serif" font-size="14.00">giocatoreCorrente</text>
<text text-anchor="middle" x="124.53" y="-218.6" font-family="Times New Roman,serif" font-size="14.00">[0..1]</text>
</g>
</g>
</svg>
